<mxfile host="app.diagrams.net" modified="2023-09-10T15:17:19.246Z" agent="Mozilla/5.0 (Windows NT 10.0; Win64; x64) AppleWebKit/537.36 (KHTML, like Gecko) Chrome/116.0.0.0 Safari/537.36" etag="AJkbazMUisGrEQBR_8jE" version="21.7.4" type="device" pages="2">
  <diagram name="SignUp-HappyPath-NoDomain" id="2YBvvXClWsGukQMizWep">
    <mxGraphModel dx="1424" dy="781" grid="1" gridSize="10" guides="1" tooltips="1" connect="1" arrows="1" fold="1" page="1" pageScale="1" pageWidth="850" pageHeight="1100" math="0" shadow="0">
      <root>
        <mxCell id="0" />
        <mxCell id="1" parent="0" />
        <mxCell id="aM9ryv3xv72pqoxQDRHE-1" value="StartMenu (UI)" style="shape=umlLifeline;perimeter=lifelinePerimeter;whiteSpace=wrap;html=1;container=0;dropTarget=0;collapsible=0;recursiveResize=0;outlineConnect=0;portConstraint=eastwest;newEdgeStyle={&quot;edgeStyle&quot;:&quot;elbowEdgeStyle&quot;,&quot;elbow&quot;:&quot;vertical&quot;,&quot;curved&quot;:0,&quot;rounded&quot;:0};" parent="1" vertex="1">
          <mxGeometry x="120" y="120" width="120" height="360" as="geometry" />
        </mxCell>
        <mxCell id="aM9ryv3xv72pqoxQDRHE-2" value="" style="html=1;points=[];perimeter=orthogonalPerimeter;outlineConnect=0;targetShapes=umlLifeline;portConstraint=eastwest;newEdgeStyle={&quot;edgeStyle&quot;:&quot;elbowEdgeStyle&quot;,&quot;elbow&quot;:&quot;vertical&quot;,&quot;curved&quot;:0,&quot;rounded&quot;:0};" parent="aM9ryv3xv72pqoxQDRHE-1" vertex="1">
          <mxGeometry x="55" y="60" width="10" height="170" as="geometry" />
        </mxCell>
        <mxCell id="aM9ryv3xv72pqoxQDRHE-3" value="open app" style="html=1;verticalAlign=bottom;startArrow=oval;endArrow=block;startSize=8;edgeStyle=elbowEdgeStyle;elbow=vertical;curved=0;rounded=0;" parent="aM9ryv3xv72pqoxQDRHE-1" target="aM9ryv3xv72pqoxQDRHE-2" edge="1">
          <mxGeometry relative="1" as="geometry">
            <mxPoint x="-80" y="70" as="sourcePoint" />
          </mxGeometry>
        </mxCell>
        <mxCell id="aM9ryv3xv72pqoxQDRHE-5" value="StartMenu (script)" style="shape=umlLifeline;perimeter=lifelinePerimeter;whiteSpace=wrap;html=1;container=0;dropTarget=0;collapsible=0;recursiveResize=0;outlineConnect=0;portConstraint=eastwest;newEdgeStyle={&quot;edgeStyle&quot;:&quot;elbowEdgeStyle&quot;,&quot;elbow&quot;:&quot;vertical&quot;,&quot;curved&quot;:0,&quot;rounded&quot;:0};" parent="1" vertex="1">
          <mxGeometry x="280" y="120" width="120" height="360" as="geometry" />
        </mxCell>
        <mxCell id="aM9ryv3xv72pqoxQDRHE-6" value="" style="html=1;points=[];perimeter=orthogonalPerimeter;outlineConnect=0;targetShapes=umlLifeline;portConstraint=eastwest;newEdgeStyle={&quot;edgeStyle&quot;:&quot;elbowEdgeStyle&quot;,&quot;elbow&quot;:&quot;vertical&quot;,&quot;curved&quot;:0,&quot;rounded&quot;:0};" parent="aM9ryv3xv72pqoxQDRHE-5" vertex="1">
          <mxGeometry x="55" y="90" width="10" height="40" as="geometry" />
        </mxCell>
        <mxCell id="7WPcVWWLd1ZiaDahRMEN-17" value="" style="html=1;points=[];perimeter=orthogonalPerimeter;outlineConnect=0;targetShapes=umlLifeline;portConstraint=eastwest;newEdgeStyle={&quot;edgeStyle&quot;:&quot;elbowEdgeStyle&quot;,&quot;elbow&quot;:&quot;vertical&quot;,&quot;curved&quot;:0,&quot;rounded&quot;:0};" parent="aM9ryv3xv72pqoxQDRHE-5" vertex="1">
          <mxGeometry x="55" y="210" width="10" height="70" as="geometry" />
        </mxCell>
        <mxCell id="7WPcVWWLd1ZiaDahRMEN-22" value="" style="endArrow=classic;html=1;rounded=0;edgeStyle=orthogonalEdgeStyle;" parent="aM9ryv3xv72pqoxQDRHE-5" edge="1">
          <mxGeometry width="50" height="50" relative="1" as="geometry">
            <mxPoint x="65" y="230" as="sourcePoint" />
            <mxPoint x="65" y="250" as="targetPoint" />
            <Array as="points">
              <mxPoint x="100" y="230" />
              <mxPoint x="100" y="250" />
            </Array>
          </mxGeometry>
        </mxCell>
        <mxCell id="7WPcVWWLd1ZiaDahRMEN-24" value="validate input" style="edgeLabel;html=1;align=center;verticalAlign=middle;resizable=0;points=[];" parent="7WPcVWWLd1ZiaDahRMEN-22" vertex="1" connectable="0">
          <mxGeometry x="-0.0708" relative="1" as="geometry">
            <mxPoint x="10" as="offset" />
          </mxGeometry>
        </mxCell>
        <mxCell id="aM9ryv3xv72pqoxQDRHE-7" value="open sign up event" style="html=1;verticalAlign=bottom;endArrow=block;edgeStyle=elbowEdgeStyle;elbow=vertical;curved=0;rounded=0;" parent="1" source="aM9ryv3xv72pqoxQDRHE-2" target="aM9ryv3xv72pqoxQDRHE-6" edge="1">
          <mxGeometry relative="1" as="geometry">
            <mxPoint x="200" y="220" as="sourcePoint" />
            <Array as="points">
              <mxPoint x="295" y="220" />
            </Array>
            <mxPoint x="330" y="220" as="targetPoint" />
            <mxPoint as="offset" />
          </mxGeometry>
        </mxCell>
        <mxCell id="aM9ryv3xv72pqoxQDRHE-9" value="show sign up UI" style="html=1;verticalAlign=bottom;endArrow=block;edgeStyle=elbowEdgeStyle;elbow=vertical;curved=0;rounded=0;dashed=1;" parent="1" source="aM9ryv3xv72pqoxQDRHE-6" target="aM9ryv3xv72pqoxQDRHE-2" edge="1">
          <mxGeometry relative="1" as="geometry">
            <mxPoint x="330" y="250" as="sourcePoint" />
            <Array as="points">
              <mxPoint x="260" y="240" />
            </Array>
            <mxPoint x="190" y="250" as="targetPoint" />
          </mxGeometry>
        </mxCell>
        <mxCell id="7WPcVWWLd1ZiaDahRMEN-1" value="User" style="shape=umlActor;verticalLabelPosition=bottom;verticalAlign=top;html=1;outlineConnect=0;" parent="1" vertex="1">
          <mxGeometry x="30" y="120" width="20" height="40" as="geometry" />
        </mxCell>
        <mxCell id="7WPcVWWLd1ZiaDahRMEN-2" value="click sign up button" style="html=1;verticalAlign=bottom;startArrow=oval;endArrow=block;startSize=8;edgeStyle=elbowEdgeStyle;elbow=vertical;curved=0;rounded=0;" parent="1" target="aM9ryv3xv72pqoxQDRHE-2" edge="1">
          <mxGeometry relative="1" as="geometry">
            <mxPoint x="40" y="210" as="sourcePoint" />
            <mxPoint x="160" y="210" as="targetPoint" />
          </mxGeometry>
        </mxCell>
        <mxCell id="7WPcVWWLd1ZiaDahRMEN-11" value="fill username" style="html=1;verticalAlign=bottom;startArrow=oval;endArrow=block;startSize=8;edgeStyle=elbowEdgeStyle;elbow=vertical;curved=0;rounded=0;" parent="1" target="aM9ryv3xv72pqoxQDRHE-2" edge="1">
          <mxGeometry relative="1" as="geometry">
            <mxPoint x="40" y="250" as="sourcePoint" />
            <mxPoint x="175" y="250" as="targetPoint" />
          </mxGeometry>
        </mxCell>
        <mxCell id="7WPcVWWLd1ZiaDahRMEN-12" value="fill password" style="html=1;verticalAlign=bottom;startArrow=oval;endArrow=block;startSize=8;edgeStyle=elbowEdgeStyle;elbow=vertical;curved=0;rounded=0;" parent="1" target="aM9ryv3xv72pqoxQDRHE-2" edge="1">
          <mxGeometry relative="1" as="geometry">
            <mxPoint x="40" y="269.8" as="sourcePoint" />
            <mxPoint x="175" y="269.8" as="targetPoint" />
          </mxGeometry>
        </mxCell>
        <mxCell id="7WPcVWWLd1ZiaDahRMEN-13" value="fill password again" style="html=1;verticalAlign=bottom;startArrow=oval;endArrow=block;startSize=8;edgeStyle=elbowEdgeStyle;elbow=vertical;curved=0;rounded=0;" parent="1" target="aM9ryv3xv72pqoxQDRHE-2" edge="1">
          <mxGeometry relative="1" as="geometry">
            <mxPoint x="40" y="290" as="sourcePoint" />
            <mxPoint x="175" y="290.2" as="targetPoint" />
          </mxGeometry>
        </mxCell>
        <mxCell id="7WPcVWWLd1ZiaDahRMEN-14" value="select user role" style="html=1;verticalAlign=bottom;startArrow=oval;endArrow=block;startSize=8;edgeStyle=elbowEdgeStyle;elbow=vertical;curved=0;rounded=0;" parent="1" target="aM9ryv3xv72pqoxQDRHE-2" edge="1">
          <mxGeometry relative="1" as="geometry">
            <mxPoint x="40" y="310" as="sourcePoint" />
            <mxPoint x="165" y="310" as="targetPoint" />
            <Array as="points" />
          </mxGeometry>
        </mxCell>
        <mxCell id="7WPcVWWLd1ZiaDahRMEN-15" value="click sign up button" style="html=1;verticalAlign=bottom;startArrow=oval;endArrow=block;startSize=8;edgeStyle=elbowEdgeStyle;elbow=vertical;curved=0;rounded=0;" parent="1" target="aM9ryv3xv72pqoxQDRHE-2" edge="1">
          <mxGeometry relative="1" as="geometry">
            <mxPoint x="40" y="330" as="sourcePoint" />
            <mxPoint x="165" y="330" as="targetPoint" />
            <Array as="points" />
          </mxGeometry>
        </mxCell>
        <mxCell id="7WPcVWWLd1ZiaDahRMEN-16" value="sign up event" style="html=1;verticalAlign=bottom;endArrow=block;edgeStyle=elbowEdgeStyle;elbow=vertical;curved=0;rounded=0;" parent="1" source="aM9ryv3xv72pqoxQDRHE-2" target="7WPcVWWLd1ZiaDahRMEN-17" edge="1">
          <mxGeometry relative="1" as="geometry">
            <mxPoint x="210" y="350" as="sourcePoint" />
            <Array as="points">
              <mxPoint x="240" y="340" />
            </Array>
            <mxPoint x="310" y="340" as="targetPoint" />
            <mxPoint as="offset" />
          </mxGeometry>
        </mxCell>
        <mxCell id="7WPcVWWLd1ZiaDahRMEN-20" value="UserAction(data, signUpMode)" style="html=1;verticalAlign=bottom;endArrow=block;edgeStyle=elbowEdgeStyle;elbow=vertical;curved=0;rounded=0;" parent="1" source="7WPcVWWLd1ZiaDahRMEN-17" target="7WPcVWWLd1ZiaDahRMEN-27" edge="1">
          <mxGeometry x="0.0032" relative="1" as="geometry">
            <mxPoint x="350" y="390" as="sourcePoint" />
            <Array as="points">
              <mxPoint x="400" y="390" />
            </Array>
            <mxPoint x="490" y="390" as="targetPoint" />
            <mxPoint as="offset" />
          </mxGeometry>
        </mxCell>
        <mxCell id="7WPcVWWLd1ZiaDahRMEN-25" value="Web (script)" style="shape=umlLifeline;perimeter=lifelinePerimeter;whiteSpace=wrap;html=1;container=0;dropTarget=0;collapsible=0;recursiveResize=0;outlineConnect=0;portConstraint=eastwest;newEdgeStyle={&quot;edgeStyle&quot;:&quot;elbowEdgeStyle&quot;,&quot;elbow&quot;:&quot;vertical&quot;,&quot;curved&quot;:0,&quot;rounded&quot;:0};" parent="1" vertex="1">
          <mxGeometry x="480" y="120" width="120" height="760" as="geometry" />
        </mxCell>
        <mxCell id="7WPcVWWLd1ZiaDahRMEN-27" value="" style="html=1;points=[];perimeter=orthogonalPerimeter;outlineConnect=0;targetShapes=umlLifeline;portConstraint=eastwest;newEdgeStyle={&quot;edgeStyle&quot;:&quot;elbowEdgeStyle&quot;,&quot;elbow&quot;:&quot;vertical&quot;,&quot;curved&quot;:0,&quot;rounded&quot;:0};" parent="7WPcVWWLd1ZiaDahRMEN-25" vertex="1">
          <mxGeometry x="55" y="260" width="10" height="460" as="geometry" />
        </mxCell>
        <mxCell id="7WPcVWWLd1ZiaDahRMEN-31" value="UnityWebRequest" style="shape=umlLifeline;perimeter=lifelinePerimeter;whiteSpace=wrap;html=1;container=0;dropTarget=0;collapsible=0;recursiveResize=0;outlineConnect=0;portConstraint=eastwest;newEdgeStyle={&quot;edgeStyle&quot;:&quot;elbowEdgeStyle&quot;,&quot;elbow&quot;:&quot;vertical&quot;,&quot;curved&quot;:0,&quot;rounded&quot;:0};" parent="1" vertex="1">
          <mxGeometry x="680" y="120" width="120" height="680" as="geometry" />
        </mxCell>
        <mxCell id="7WPcVWWLd1ZiaDahRMEN-32" value="" style="html=1;points=[];perimeter=orthogonalPerimeter;outlineConnect=0;targetShapes=umlLifeline;portConstraint=eastwest;newEdgeStyle={&quot;edgeStyle&quot;:&quot;elbowEdgeStyle&quot;,&quot;elbow&quot;:&quot;vertical&quot;,&quot;curved&quot;:0,&quot;rounded&quot;:0};" parent="7WPcVWWLd1ZiaDahRMEN-31" vertex="1">
          <mxGeometry x="55" y="320" width="10" height="320" as="geometry" />
        </mxCell>
        <mxCell id="7WPcVWWLd1ZiaDahRMEN-33" value="" style="endArrow=classic;html=1;rounded=0;edgeStyle=orthogonalEdgeStyle;" parent="1" edge="1">
          <mxGeometry width="50" height="50" relative="1" as="geometry">
            <mxPoint x="545" y="400" as="sourcePoint" />
            <mxPoint x="545" y="420" as="targetPoint" />
            <Array as="points">
              <mxPoint x="620" y="400" />
              <mxPoint x="620" y="420" />
            </Array>
          </mxGeometry>
        </mxCell>
        <mxCell id="7WPcVWWLd1ZiaDahRMEN-34" value="put in a wwwform the data" style="edgeLabel;html=1;align=center;verticalAlign=middle;resizable=0;points=[];" parent="7WPcVWWLd1ZiaDahRMEN-33" vertex="1" connectable="0">
          <mxGeometry x="-0.0708" relative="1" as="geometry">
            <mxPoint as="offset" />
          </mxGeometry>
        </mxCell>
        <mxCell id="7WPcVWWLd1ZiaDahRMEN-35" value="POST(https://.../SignUp.php, form)" style="html=1;verticalAlign=bottom;endArrow=block;edgeStyle=elbowEdgeStyle;elbow=vertical;curved=0;rounded=0;" parent="1" target="7WPcVWWLd1ZiaDahRMEN-32" edge="1">
          <mxGeometry x="0.0032" relative="1" as="geometry">
            <mxPoint x="544.9999999999998" y="449.5799999999999" as="sourcePoint" />
            <Array as="points">
              <mxPoint x="595" y="449.58" />
            </Array>
            <mxPoint x="730" y="449.58" as="targetPoint" />
            <mxPoint as="offset" />
          </mxGeometry>
        </mxCell>
        <mxCell id="7WPcVWWLd1ZiaDahRMEN-36" value="Apache application" style="shape=umlLifeline;perimeter=lifelinePerimeter;whiteSpace=wrap;html=1;container=0;dropTarget=0;collapsible=0;recursiveResize=0;outlineConnect=0;portConstraint=eastwest;newEdgeStyle={&quot;edgeStyle&quot;:&quot;elbowEdgeStyle&quot;,&quot;elbow&quot;:&quot;vertical&quot;,&quot;curved&quot;:0,&quot;rounded&quot;:0};" parent="1" vertex="1">
          <mxGeometry x="880" y="120" width="120" height="680" as="geometry" />
        </mxCell>
        <mxCell id="7WPcVWWLd1ZiaDahRMEN-37" value="" style="html=1;points=[];perimeter=orthogonalPerimeter;outlineConnect=0;targetShapes=umlLifeline;portConstraint=eastwest;newEdgeStyle={&quot;edgeStyle&quot;:&quot;elbowEdgeStyle&quot;,&quot;elbow&quot;:&quot;vertical&quot;,&quot;curved&quot;:0,&quot;rounded&quot;:0};" parent="7WPcVWWLd1ZiaDahRMEN-36" vertex="1">
          <mxGeometry x="55" y="330" width="10" height="300" as="geometry" />
        </mxCell>
        <mxCell id="7WPcVWWLd1ZiaDahRMEN-39" value="Client App" style="rounded=1;whiteSpace=wrap;html=1;" parent="1" vertex="1">
          <mxGeometry x="120" y="40" width="720" height="40" as="geometry" />
        </mxCell>
        <mxCell id="7WPcVWWLd1ZiaDahRMEN-41" value="" style="endArrow=none;dashed=1;html=1;rounded=0;entryX=1;entryY=1;entryDx=0;entryDy=0;fillColor=#f8cecc;strokeColor=#b85450;" parent="1" target="7WPcVWWLd1ZiaDahRMEN-39" edge="1">
          <mxGeometry width="50" height="50" relative="1" as="geometry">
            <mxPoint x="840" y="800" as="sourcePoint" />
            <mxPoint x="880" y="170" as="targetPoint" />
          </mxGeometry>
        </mxCell>
        <mxCell id="7WPcVWWLd1ZiaDahRMEN-42" value="&lt;font color=&quot;#ff1f1f&quot;&gt;INTERNET BOUNDARY&lt;/font&gt;" style="edgeLabel;html=1;align=center;verticalAlign=middle;resizable=0;points=[];rotation=270;" parent="7WPcVWWLd1ZiaDahRMEN-41" vertex="1" connectable="0">
          <mxGeometry x="0.6985" y="-1" relative="1" as="geometry">
            <mxPoint x="-1" y="-1" as="offset" />
          </mxGeometry>
        </mxCell>
        <mxCell id="7WPcVWWLd1ZiaDahRMEN-43" value="Apache Server" style="rounded=1;whiteSpace=wrap;html=1;" parent="1" vertex="1">
          <mxGeometry x="840" y="40" width="520" height="40" as="geometry" />
        </mxCell>
        <mxCell id="7WPcVWWLd1ZiaDahRMEN-44" value="MySql Server" style="rounded=1;whiteSpace=wrap;html=1;" parent="1" vertex="1">
          <mxGeometry x="1360" y="40" width="200" height="40" as="geometry" />
        </mxCell>
        <mxCell id="7WPcVWWLd1ZiaDahRMEN-45" value="Database" style="rounded=1;whiteSpace=wrap;html=1;" parent="1" vertex="1">
          <mxGeometry x="1560" y="40" width="200" height="40" as="geometry" />
        </mxCell>
        <mxCell id="7WPcVWWLd1ZiaDahRMEN-46" value="" style="endArrow=none;dashed=1;html=1;rounded=0;entryX=1;entryY=1;entryDx=0;entryDy=0;fillColor=#f8cecc;strokeColor=#b85450;" parent="1" edge="1">
          <mxGeometry width="50" height="50" relative="1" as="geometry">
            <mxPoint x="1360" y="800" as="sourcePoint" />
            <mxPoint x="1360" y="80" as="targetPoint" />
          </mxGeometry>
        </mxCell>
        <mxCell id="7WPcVWWLd1ZiaDahRMEN-47" value="&lt;font color=&quot;#ff1f1f&quot;&gt;LOCALHOST BOUNDARY&lt;/font&gt;" style="edgeLabel;html=1;align=center;verticalAlign=middle;resizable=0;points=[];rotation=270;" parent="7WPcVWWLd1ZiaDahRMEN-46" vertex="1" connectable="0">
          <mxGeometry x="0.6985" y="-1" relative="1" as="geometry">
            <mxPoint x="-1" y="-1" as="offset" />
          </mxGeometry>
        </mxCell>
        <mxCell id="7WPcVWWLd1ZiaDahRMEN-48" value="" style="endArrow=none;dashed=1;html=1;rounded=0;entryX=1;entryY=1;entryDx=0;entryDy=0;fillColor=#f8cecc;strokeColor=#b85450;" parent="1" edge="1">
          <mxGeometry width="50" height="50" relative="1" as="geometry">
            <mxPoint x="1560" y="800" as="sourcePoint" />
            <mxPoint x="1560" y="90" as="targetPoint" />
          </mxGeometry>
        </mxCell>
        <mxCell id="7WPcVWWLd1ZiaDahRMEN-49" value="&lt;font color=&quot;#ff1f1f&quot;&gt;LOCALHOST BOUNDARY&lt;/font&gt;" style="edgeLabel;html=1;align=center;verticalAlign=middle;resizable=0;points=[];rotation=270;" parent="7WPcVWWLd1ZiaDahRMEN-48" vertex="1" connectable="0">
          <mxGeometry x="0.6985" y="-1" relative="1" as="geometry">
            <mxPoint x="-1" y="-1" as="offset" />
          </mxGeometry>
        </mxCell>
        <mxCell id="7WPcVWWLd1ZiaDahRMEN-50" value="SignUp.php" style="shape=umlLifeline;perimeter=lifelinePerimeter;whiteSpace=wrap;html=1;container=0;dropTarget=0;collapsible=0;recursiveResize=0;outlineConnect=0;portConstraint=eastwest;newEdgeStyle={&quot;edgeStyle&quot;:&quot;elbowEdgeStyle&quot;,&quot;elbow&quot;:&quot;vertical&quot;,&quot;curved&quot;:0,&quot;rounded&quot;:0};" parent="1" vertex="1">
          <mxGeometry x="1040" y="120" width="120" height="680" as="geometry" />
        </mxCell>
        <mxCell id="7WPcVWWLd1ZiaDahRMEN-51" value="" style="html=1;points=[];perimeter=orthogonalPerimeter;outlineConnect=0;targetShapes=umlLifeline;portConstraint=eastwest;newEdgeStyle={&quot;edgeStyle&quot;:&quot;elbowEdgeStyle&quot;,&quot;elbow&quot;:&quot;vertical&quot;,&quot;curved&quot;:0,&quot;rounded&quot;:0};" parent="7WPcVWWLd1ZiaDahRMEN-50" vertex="1">
          <mxGeometry x="55" y="340" width="10" height="280" as="geometry" />
        </mxCell>
        <mxCell id="7WPcVWWLd1ZiaDahRMEN-52" value="mysqli (interface)" style="shape=umlLifeline;perimeter=lifelinePerimeter;whiteSpace=wrap;html=1;container=0;dropTarget=0;collapsible=0;recursiveResize=0;outlineConnect=0;portConstraint=eastwest;newEdgeStyle={&quot;edgeStyle&quot;:&quot;elbowEdgeStyle&quot;,&quot;elbow&quot;:&quot;vertical&quot;,&quot;curved&quot;:0,&quot;rounded&quot;:0};" parent="1" vertex="1">
          <mxGeometry x="1200" y="120" width="120" height="680" as="geometry" />
        </mxCell>
        <mxCell id="7WPcVWWLd1ZiaDahRMEN-53" value="" style="html=1;points=[];perimeter=orthogonalPerimeter;outlineConnect=0;targetShapes=umlLifeline;portConstraint=eastwest;newEdgeStyle={&quot;edgeStyle&quot;:&quot;elbowEdgeStyle&quot;,&quot;elbow&quot;:&quot;vertical&quot;,&quot;curved&quot;:0,&quot;rounded&quot;:0};" parent="7WPcVWWLd1ZiaDahRMEN-52" vertex="1">
          <mxGeometry x="55" y="350" width="10" height="260" as="geometry" />
        </mxCell>
        <mxCell id="7WPcVWWLd1ZiaDahRMEN-54" value="POST(https://.../SignUp.php, form)" style="html=1;verticalAlign=bottom;endArrow=block;edgeStyle=elbowEdgeStyle;elbow=vertical;curved=0;rounded=0;" parent="1" source="7WPcVWWLd1ZiaDahRMEN-32" target="7WPcVWWLd1ZiaDahRMEN-37" edge="1">
          <mxGeometry x="0.0032" relative="1" as="geometry">
            <mxPoint x="749.9999999999998" y="459.5799999999999" as="sourcePoint" />
            <Array as="points">
              <mxPoint x="800" y="459.58" />
            </Array>
            <mxPoint x="930" y="460" as="targetPoint" />
            <mxPoint as="offset" />
          </mxGeometry>
        </mxCell>
        <mxCell id="7WPcVWWLd1ZiaDahRMEN-55" value="form" style="html=1;verticalAlign=bottom;endArrow=block;edgeStyle=elbowEdgeStyle;elbow=vertical;curved=0;rounded=0;" parent="1" source="7WPcVWWLd1ZiaDahRMEN-37" target="7WPcVWWLd1ZiaDahRMEN-51" edge="1">
          <mxGeometry x="0.0032" relative="1" as="geometry">
            <mxPoint x="940" y="470" as="sourcePoint" />
            <Array as="points">
              <mxPoint x="950" y="470" />
            </Array>
            <mxPoint x="1100" y="470" as="targetPoint" />
            <mxPoint as="offset" />
          </mxGeometry>
        </mxCell>
        <mxCell id="7AU1-XuZ7cZEqzBJK_t8-1" value="establish conexion" style="html=1;verticalAlign=bottom;endArrow=block;edgeStyle=elbowEdgeStyle;elbow=vertical;curved=0;rounded=0;" edge="1" parent="1" source="7WPcVWWLd1ZiaDahRMEN-51" target="7WPcVWWLd1ZiaDahRMEN-53">
          <mxGeometry x="0.0032" relative="1" as="geometry">
            <mxPoint x="1110" y="480" as="sourcePoint" />
            <Array as="points">
              <mxPoint x="1115" y="480" />
            </Array>
            <mxPoint x="1260" y="480" as="targetPoint" />
            <mxPoint as="offset" />
          </mxGeometry>
        </mxCell>
        <mxCell id="7AU1-XuZ7cZEqzBJK_t8-2" value="mysql" style="shape=umlLifeline;perimeter=lifelinePerimeter;whiteSpace=wrap;html=1;container=0;dropTarget=0;collapsible=0;recursiveResize=0;outlineConnect=0;portConstraint=eastwest;newEdgeStyle={&quot;edgeStyle&quot;:&quot;elbowEdgeStyle&quot;,&quot;elbow&quot;:&quot;vertical&quot;,&quot;curved&quot;:0,&quot;rounded&quot;:0};" vertex="1" parent="1">
          <mxGeometry x="1400" y="120" width="120" height="680" as="geometry" />
        </mxCell>
        <mxCell id="7AU1-XuZ7cZEqzBJK_t8-3" value="" style="html=1;points=[];perimeter=orthogonalPerimeter;outlineConnect=0;targetShapes=umlLifeline;portConstraint=eastwest;newEdgeStyle={&quot;edgeStyle&quot;:&quot;elbowEdgeStyle&quot;,&quot;elbow&quot;:&quot;vertical&quot;,&quot;curved&quot;:0,&quot;rounded&quot;:0};" vertex="1" parent="7AU1-XuZ7cZEqzBJK_t8-2">
          <mxGeometry x="55" y="360" width="10" height="40" as="geometry" />
        </mxCell>
        <mxCell id="7AU1-XuZ7cZEqzBJK_t8-11" value="" style="html=1;points=[];perimeter=orthogonalPerimeter;outlineConnect=0;targetShapes=umlLifeline;portConstraint=eastwest;newEdgeStyle={&quot;edgeStyle&quot;:&quot;elbowEdgeStyle&quot;,&quot;elbow&quot;:&quot;vertical&quot;,&quot;curved&quot;:0,&quot;rounded&quot;:0};" vertex="1" parent="7AU1-XuZ7cZEqzBJK_t8-2">
          <mxGeometry x="55" y="440" width="10" height="60" as="geometry" />
        </mxCell>
        <mxCell id="7AU1-XuZ7cZEqzBJK_t8-15" value="" style="html=1;points=[];perimeter=orthogonalPerimeter;outlineConnect=0;targetShapes=umlLifeline;portConstraint=eastwest;newEdgeStyle={&quot;edgeStyle&quot;:&quot;elbowEdgeStyle&quot;,&quot;elbow&quot;:&quot;vertical&quot;,&quot;curved&quot;:0,&quot;rounded&quot;:0};" vertex="1" parent="7AU1-XuZ7cZEqzBJK_t8-2">
          <mxGeometry x="55" y="540" width="10" height="60" as="geometry" />
        </mxCell>
        <mxCell id="7AU1-XuZ7cZEqzBJK_t8-4" value="db" style="shape=umlLifeline;perimeter=lifelinePerimeter;whiteSpace=wrap;html=1;container=0;dropTarget=0;collapsible=0;recursiveResize=0;outlineConnect=0;portConstraint=eastwest;newEdgeStyle={&quot;edgeStyle&quot;:&quot;elbowEdgeStyle&quot;,&quot;elbow&quot;:&quot;vertical&quot;,&quot;curved&quot;:0,&quot;rounded&quot;:0};" vertex="1" parent="1">
          <mxGeometry x="1600" y="120" width="120" height="680" as="geometry" />
        </mxCell>
        <mxCell id="7AU1-XuZ7cZEqzBJK_t8-5" value="" style="html=1;points=[];perimeter=orthogonalPerimeter;outlineConnect=0;targetShapes=umlLifeline;portConstraint=eastwest;newEdgeStyle={&quot;edgeStyle&quot;:&quot;elbowEdgeStyle&quot;,&quot;elbow&quot;:&quot;vertical&quot;,&quot;curved&quot;:0,&quot;rounded&quot;:0};" vertex="1" parent="7AU1-XuZ7cZEqzBJK_t8-4">
          <mxGeometry x="55" y="450" width="10" height="40" as="geometry" />
        </mxCell>
        <mxCell id="7AU1-XuZ7cZEqzBJK_t8-24" value="" style="html=1;points=[];perimeter=orthogonalPerimeter;outlineConnect=0;targetShapes=umlLifeline;portConstraint=eastwest;newEdgeStyle={&quot;edgeStyle&quot;:&quot;elbowEdgeStyle&quot;,&quot;elbow&quot;:&quot;vertical&quot;,&quot;curved&quot;:0,&quot;rounded&quot;:0};" vertex="1" parent="7AU1-XuZ7cZEqzBJK_t8-4">
          <mxGeometry x="55" y="550" width="10" height="40" as="geometry" />
        </mxCell>
        <mxCell id="7AU1-XuZ7cZEqzBJK_t8-6" value="establish conexion" style="html=1;verticalAlign=bottom;endArrow=block;edgeStyle=elbowEdgeStyle;elbow=vertical;curved=0;rounded=0;" edge="1" parent="1" source="7WPcVWWLd1ZiaDahRMEN-53" target="7AU1-XuZ7cZEqzBJK_t8-3">
          <mxGeometry x="0.0032" relative="1" as="geometry">
            <mxPoint x="1265" y="490" as="sourcePoint" />
            <Array as="points">
              <mxPoint x="1285" y="490" />
            </Array>
            <mxPoint x="1430" y="490" as="targetPoint" />
            <mxPoint as="offset" />
          </mxGeometry>
        </mxCell>
        <mxCell id="7AU1-XuZ7cZEqzBJK_t8-7" value="200 ok" style="html=1;verticalAlign=bottom;endArrow=block;edgeStyle=elbowEdgeStyle;elbow=vertical;curved=0;rounded=0;dashed=1;" edge="1" parent="1" source="7AU1-XuZ7cZEqzBJK_t8-3">
          <mxGeometry x="0.0032" relative="1" as="geometry">
            <mxPoint x="1340" y="670" as="sourcePoint" />
            <Array as="points">
              <mxPoint x="1295" y="510" />
            </Array>
            <mxPoint x="1265" y="510" as="targetPoint" />
            <mxPoint as="offset" />
          </mxGeometry>
        </mxCell>
        <mxCell id="7AU1-XuZ7cZEqzBJK_t8-8" value="ok" style="html=1;verticalAlign=bottom;endArrow=block;edgeStyle=elbowEdgeStyle;elbow=vertical;curved=0;rounded=0;dashed=1;" edge="1" parent="1" source="7WPcVWWLd1ZiaDahRMEN-53" target="7WPcVWWLd1ZiaDahRMEN-51">
          <mxGeometry x="0.0032" relative="1" as="geometry">
            <mxPoint x="1115" y="590" as="sourcePoint" />
            <Array as="points">
              <mxPoint x="1180" y="520" />
            </Array>
            <mxPoint x="1270" y="590" as="targetPoint" />
            <mxPoint as="offset" />
          </mxGeometry>
        </mxCell>
        <mxCell id="7AU1-XuZ7cZEqzBJK_t8-9" value="select users&lt;br&gt;(with same username)" style="html=1;verticalAlign=bottom;endArrow=block;edgeStyle=elbowEdgeStyle;elbow=vertical;curved=0;rounded=0;" edge="1" parent="1">
          <mxGeometry x="0.0032" relative="1" as="geometry">
            <mxPoint x="1105" y="560" as="sourcePoint" />
            <Array as="points">
              <mxPoint x="1120" y="560" />
            </Array>
            <mxPoint x="1255" y="560" as="targetPoint" />
            <mxPoint as="offset" />
          </mxGeometry>
        </mxCell>
        <mxCell id="7AU1-XuZ7cZEqzBJK_t8-10" value="select users&lt;br&gt;(with same username)" style="html=1;verticalAlign=bottom;endArrow=block;edgeStyle=elbowEdgeStyle;elbow=vertical;curved=0;rounded=0;" edge="1" parent="1" source="7WPcVWWLd1ZiaDahRMEN-53" target="7AU1-XuZ7cZEqzBJK_t8-11">
          <mxGeometry x="0.0032" relative="1" as="geometry">
            <mxPoint x="1270" y="570" as="sourcePoint" />
            <Array as="points">
              <mxPoint x="1285" y="570" />
            </Array>
            <mxPoint x="1420" y="570" as="targetPoint" />
            <mxPoint as="offset" />
          </mxGeometry>
        </mxCell>
        <mxCell id="7AU1-XuZ7cZEqzBJK_t8-12" value="0 results" style="html=1;verticalAlign=bottom;endArrow=block;edgeStyle=elbowEdgeStyle;elbow=vertical;curved=0;rounded=0;dashed=1;" edge="1" parent="1">
          <mxGeometry x="0.0032" relative="1" as="geometry">
            <mxPoint x="1255" y="620" as="sourcePoint" />
            <Array as="points">
              <mxPoint x="1175" y="620" />
            </Array>
            <mxPoint x="1105" y="620" as="targetPoint" />
            <mxPoint as="offset" />
          </mxGeometry>
        </mxCell>
        <mxCell id="7AU1-XuZ7cZEqzBJK_t8-13" value="0 results" style="html=1;verticalAlign=bottom;endArrow=block;edgeStyle=elbowEdgeStyle;elbow=vertical;curved=0;rounded=0;dashed=1;" edge="1" parent="1" target="7WPcVWWLd1ZiaDahRMEN-53">
          <mxGeometry x="0.0032" relative="1" as="geometry">
            <mxPoint x="1455" y="610" as="sourcePoint" />
            <Array as="points">
              <mxPoint x="1290" y="610" />
            </Array>
            <mxPoint x="1260" y="610" as="targetPoint" />
            <mxPoint as="offset" />
          </mxGeometry>
        </mxCell>
        <mxCell id="7AU1-XuZ7cZEqzBJK_t8-14" value="insert user&lt;br style=&quot;border-color: var(--border-color);&quot;&gt;(username and password)" style="html=1;verticalAlign=bottom;endArrow=block;edgeStyle=elbowEdgeStyle;elbow=vertical;curved=0;rounded=0;" edge="1" parent="1" source="7WPcVWWLd1ZiaDahRMEN-51">
          <mxGeometry x="0.0032" relative="1" as="geometry">
            <mxPoint x="1110" y="660" as="sourcePoint" />
            <Array as="points">
              <mxPoint x="1125" y="660" />
            </Array>
            <mxPoint x="1255" y="660" as="targetPoint" />
            <mxPoint as="offset" />
          </mxGeometry>
        </mxCell>
        <mxCell id="7AU1-XuZ7cZEqzBJK_t8-16" value="insert user&lt;br style=&quot;border-color: var(--border-color);&quot;&gt;(username and password)" style="html=1;verticalAlign=bottom;endArrow=block;edgeStyle=elbowEdgeStyle;elbow=vertical;curved=0;rounded=0;" edge="1" parent="1" source="7WPcVWWLd1ZiaDahRMEN-53" target="7AU1-XuZ7cZEqzBJK_t8-15">
          <mxGeometry x="0.0032" relative="1" as="geometry">
            <mxPoint x="1270" y="670" as="sourcePoint" />
            <Array as="points">
              <mxPoint x="1290" y="670" />
            </Array>
            <mxPoint x="1460" y="670" as="targetPoint" />
            <mxPoint as="offset" />
          </mxGeometry>
        </mxCell>
        <mxCell id="7AU1-XuZ7cZEqzBJK_t8-18" value="1 inserted" style="html=1;verticalAlign=bottom;endArrow=block;edgeStyle=elbowEdgeStyle;elbow=vertical;curved=0;rounded=0;dashed=1;" edge="1" parent="1" target="7WPcVWWLd1ZiaDahRMEN-53">
          <mxGeometry x="0.0032" relative="1" as="geometry">
            <mxPoint x="1455" y="710" as="sourcePoint" />
            <Array as="points">
              <mxPoint x="1290" y="710" />
            </Array>
            <mxPoint x="1260" y="710" as="targetPoint" />
            <mxPoint as="offset" />
          </mxGeometry>
        </mxCell>
        <mxCell id="7AU1-XuZ7cZEqzBJK_t8-19" value="1 inserted" style="html=1;verticalAlign=bottom;endArrow=block;edgeStyle=elbowEdgeStyle;elbow=vertical;curved=0;rounded=0;dashed=1;" edge="1" parent="1" target="7WPcVWWLd1ZiaDahRMEN-51">
          <mxGeometry x="0.0032" relative="1" as="geometry">
            <mxPoint x="1255" y="720" as="sourcePoint" />
            <Array as="points" />
            <mxPoint x="1100" y="720" as="targetPoint" />
            <mxPoint as="offset" />
          </mxGeometry>
        </mxCell>
        <mxCell id="7AU1-XuZ7cZEqzBJK_t8-20" value="ok" style="html=1;verticalAlign=bottom;endArrow=block;edgeStyle=elbowEdgeStyle;elbow=vertical;curved=0;rounded=0;" edge="1" parent="1" target="7WPcVWWLd1ZiaDahRMEN-37">
          <mxGeometry x="0.0032" relative="1" as="geometry">
            <mxPoint x="1095" y="730" as="sourcePoint" />
            <Array as="points" />
            <mxPoint x="940" y="730" as="targetPoint" />
            <mxPoint as="offset" />
          </mxGeometry>
        </mxCell>
        <mxCell id="7AU1-XuZ7cZEqzBJK_t8-21" value="200 ok" style="html=1;verticalAlign=bottom;endArrow=block;edgeStyle=elbowEdgeStyle;elbow=vertical;curved=0;rounded=0;dashed=1;" edge="1" parent="1">
          <mxGeometry x="0.0032" relative="1" as="geometry">
            <mxPoint x="935" y="740.17" as="sourcePoint" />
            <Array as="points" />
            <mxPoint x="745" y="740" as="targetPoint" />
            <mxPoint as="offset" />
          </mxGeometry>
        </mxCell>
        <mxCell id="7AU1-XuZ7cZEqzBJK_t8-22" value="ok" style="html=1;verticalAlign=bottom;endArrow=block;edgeStyle=elbowEdgeStyle;elbow=vertical;curved=0;rounded=0;dashed=1;" edge="1" parent="1">
          <mxGeometry x="0.0032" relative="1" as="geometry">
            <mxPoint x="735" y="750.0000000000001" as="sourcePoint" />
            <Array as="points">
              <mxPoint x="550" y="750" />
            </Array>
            <mxPoint x="545" y="750.0000000000001" as="targetPoint" />
            <mxPoint as="offset" />
          </mxGeometry>
        </mxCell>
        <mxCell id="7AU1-XuZ7cZEqzBJK_t8-23" value="select users&lt;br&gt;(with same username)" style="html=1;verticalAlign=bottom;endArrow=block;edgeStyle=elbowEdgeStyle;elbow=vertical;curved=0;rounded=0;" edge="1" parent="1">
          <mxGeometry x="0.0032" relative="1" as="geometry">
            <mxPoint x="1465" y="580" as="sourcePoint" />
            <Array as="points">
              <mxPoint x="1480" y="580" />
            </Array>
            <mxPoint x="1655" y="580" as="targetPoint" />
            <mxPoint as="offset" />
          </mxGeometry>
        </mxCell>
        <mxCell id="7AU1-XuZ7cZEqzBJK_t8-25" value="0 results" style="html=1;verticalAlign=bottom;endArrow=block;edgeStyle=elbowEdgeStyle;elbow=vertical;curved=0;rounded=0;dashed=1;" edge="1" parent="1">
          <mxGeometry x="0.0032" relative="1" as="geometry">
            <mxPoint x="1655" y="600" as="sourcePoint" />
            <Array as="points">
              <mxPoint x="1490" y="600" />
            </Array>
            <mxPoint x="1465" y="600" as="targetPoint" />
            <mxPoint as="offset" />
          </mxGeometry>
        </mxCell>
        <mxCell id="7AU1-XuZ7cZEqzBJK_t8-26" value="insert user&lt;br style=&quot;border-color: var(--border-color);&quot;&gt;(username and password)" style="html=1;verticalAlign=bottom;endArrow=block;edgeStyle=elbowEdgeStyle;elbow=vertical;curved=0;rounded=0;" edge="1" parent="1" source="7AU1-XuZ7cZEqzBJK_t8-15" target="7AU1-XuZ7cZEqzBJK_t8-24">
          <mxGeometry x="0.0032" relative="1" as="geometry">
            <mxPoint x="1470" y="680" as="sourcePoint" />
            <Array as="points">
              <mxPoint x="1490" y="680" />
            </Array>
            <mxPoint x="1660" y="680" as="targetPoint" />
            <mxPoint as="offset" />
          </mxGeometry>
        </mxCell>
        <mxCell id="7AU1-XuZ7cZEqzBJK_t8-27" value="1 inserted" style="html=1;verticalAlign=bottom;endArrow=block;edgeStyle=elbowEdgeStyle;elbow=vertical;curved=0;rounded=0;dashed=1;" edge="1" parent="1" target="7AU1-XuZ7cZEqzBJK_t8-15">
          <mxGeometry x="0.0032" relative="1" as="geometry">
            <mxPoint x="1655" y="700" as="sourcePoint" />
            <Array as="points">
              <mxPoint x="1490" y="700" />
            </Array>
            <mxPoint x="1460" y="700" as="targetPoint" />
            <mxPoint as="offset" />
          </mxGeometry>
        </mxCell>
        <mxCell id="7AU1-XuZ7cZEqzBJK_t8-34" value="SceneManager" style="shape=umlLifeline;perimeter=lifelinePerimeter;whiteSpace=wrap;html=1;container=0;dropTarget=0;collapsible=0;recursiveResize=0;outlineConnect=0;portConstraint=eastwest;newEdgeStyle={&quot;edgeStyle&quot;:&quot;elbowEdgeStyle&quot;,&quot;elbow&quot;:&quot;vertical&quot;,&quot;curved&quot;:0,&quot;rounded&quot;:0};" vertex="1" parent="1">
          <mxGeometry x="320" y="640" width="120" height="240" as="geometry" />
        </mxCell>
        <mxCell id="7AU1-XuZ7cZEqzBJK_t8-35" value="" style="html=1;points=[];perimeter=orthogonalPerimeter;outlineConnect=0;targetShapes=umlLifeline;portConstraint=eastwest;newEdgeStyle={&quot;edgeStyle&quot;:&quot;elbowEdgeStyle&quot;,&quot;elbow&quot;:&quot;vertical&quot;,&quot;curved&quot;:0,&quot;rounded&quot;:0};" vertex="1" parent="7AU1-XuZ7cZEqzBJK_t8-34">
          <mxGeometry x="55" y="120" width="10" height="20" as="geometry" />
        </mxCell>
        <mxCell id="7AU1-XuZ7cZEqzBJK_t8-39" value="loadScene(facultad)" style="html=1;verticalAlign=bottom;endArrow=block;edgeStyle=elbowEdgeStyle;elbow=vertical;curved=0;rounded=0;" edge="1" parent="1" source="7WPcVWWLd1ZiaDahRMEN-27" target="7AU1-XuZ7cZEqzBJK_t8-35">
          <mxGeometry x="0.0032" relative="1" as="geometry">
            <mxPoint x="530" y="770.17" as="sourcePoint" />
            <Array as="points" />
            <mxPoint x="390" y="770" as="targetPoint" />
            <mxPoint as="offset" />
          </mxGeometry>
        </mxCell>
        <mxCell id="7AU1-XuZ7cZEqzBJK_t8-40" value="NetworkManager" style="shape=umlLifeline;perimeter=lifelinePerimeter;whiteSpace=wrap;html=1;container=0;dropTarget=0;collapsible=0;recursiveResize=0;outlineConnect=0;portConstraint=eastwest;newEdgeStyle={&quot;edgeStyle&quot;:&quot;elbowEdgeStyle&quot;,&quot;elbow&quot;:&quot;vertical&quot;,&quot;curved&quot;:0,&quot;rounded&quot;:0};" vertex="1" parent="1">
          <mxGeometry x="190" y="640" width="120" height="240" as="geometry" />
        </mxCell>
        <mxCell id="7AU1-XuZ7cZEqzBJK_t8-41" value="" style="html=1;points=[];perimeter=orthogonalPerimeter;outlineConnect=0;targetShapes=umlLifeline;portConstraint=eastwest;newEdgeStyle={&quot;edgeStyle&quot;:&quot;elbowEdgeStyle&quot;,&quot;elbow&quot;:&quot;vertical&quot;,&quot;curved&quot;:0,&quot;rounded&quot;:0};" vertex="1" parent="7AU1-XuZ7cZEqzBJK_t8-40">
          <mxGeometry x="55" y="150" width="10" height="20" as="geometry" />
        </mxCell>
        <mxCell id="7AU1-XuZ7cZEqzBJK_t8-45" value="startClient()" style="html=1;verticalAlign=bottom;endArrow=block;edgeStyle=elbowEdgeStyle;elbow=vertical;curved=0;rounded=0;" edge="1" parent="1" source="7WPcVWWLd1ZiaDahRMEN-27" target="7AU1-XuZ7cZEqzBJK_t8-41">
          <mxGeometry x="0.0032" relative="1" as="geometry">
            <mxPoint x="530" y="800" as="sourcePoint" />
            <Array as="points" />
            <mxPoint x="340" y="800.17" as="targetPoint" />
            <mxPoint as="offset" />
          </mxGeometry>
        </mxCell>
        <mxCell id="7AU1-XuZ7cZEqzBJK_t8-47" value="VivoxPlayer" style="shape=umlLifeline;perimeter=lifelinePerimeter;whiteSpace=wrap;html=1;container=0;dropTarget=0;collapsible=0;recursiveResize=0;outlineConnect=0;portConstraint=eastwest;newEdgeStyle={&quot;edgeStyle&quot;:&quot;elbowEdgeStyle&quot;,&quot;elbow&quot;:&quot;vertical&quot;,&quot;curved&quot;:0,&quot;rounded&quot;:0};" vertex="1" parent="1">
          <mxGeometry x="60" y="640" width="120" height="240" as="geometry" />
        </mxCell>
        <mxCell id="7AU1-XuZ7cZEqzBJK_t8-48" value="" style="html=1;points=[];perimeter=orthogonalPerimeter;outlineConnect=0;targetShapes=umlLifeline;portConstraint=eastwest;newEdgeStyle={&quot;edgeStyle&quot;:&quot;elbowEdgeStyle&quot;,&quot;elbow&quot;:&quot;vertical&quot;,&quot;curved&quot;:0,&quot;rounded&quot;:0};" vertex="1" parent="7AU1-XuZ7cZEqzBJK_t8-47">
          <mxGeometry x="55" y="180" width="10" height="20" as="geometry" />
        </mxCell>
        <mxCell id="7AU1-XuZ7cZEqzBJK_t8-52" value="signIntoVivox()" style="html=1;verticalAlign=bottom;endArrow=block;edgeStyle=elbowEdgeStyle;elbow=vertical;curved=0;rounded=0;" edge="1" parent="1" target="7AU1-XuZ7cZEqzBJK_t8-48">
          <mxGeometry x="0.0033" relative="1" as="geometry">
            <mxPoint x="535" y="829.33" as="sourcePoint" />
            <Array as="points" />
            <mxPoint x="260" y="829.33" as="targetPoint" />
            <mxPoint as="offset" />
          </mxGeometry>
        </mxCell>
      </root>
    </mxGraphModel>
  </diagram>
  <diagram name="SignUp-HappyPath-WithDomain" id="f5pBfwXz28oxZ07uxFKk">
    <mxGraphModel dx="2441" dy="1339" grid="1" gridSize="10" guides="1" tooltips="1" connect="1" arrows="1" fold="1" page="1" pageScale="1" pageWidth="850" pageHeight="1100" math="0" shadow="0">
      <root>
        <mxCell id="Dp2Q2RnaTo9Ew_AkdoZd-0" />
        <mxCell id="Dp2Q2RnaTo9Ew_AkdoZd-1" parent="Dp2Q2RnaTo9Ew_AkdoZd-0" />
        <mxCell id="Dp2Q2RnaTo9Ew_AkdoZd-2" value="StartMenu (UI)" style="shape=umlLifeline;perimeter=lifelinePerimeter;whiteSpace=wrap;html=1;container=0;dropTarget=0;collapsible=0;recursiveResize=0;outlineConnect=0;portConstraint=eastwest;newEdgeStyle={&quot;edgeStyle&quot;:&quot;elbowEdgeStyle&quot;,&quot;elbow&quot;:&quot;vertical&quot;,&quot;curved&quot;:0,&quot;rounded&quot;:0};" vertex="1" parent="Dp2Q2RnaTo9Ew_AkdoZd-1">
          <mxGeometry x="120" y="120" width="120" height="360" as="geometry" />
        </mxCell>
        <mxCell id="Dp2Q2RnaTo9Ew_AkdoZd-3" value="" style="html=1;points=[];perimeter=orthogonalPerimeter;outlineConnect=0;targetShapes=umlLifeline;portConstraint=eastwest;newEdgeStyle={&quot;edgeStyle&quot;:&quot;elbowEdgeStyle&quot;,&quot;elbow&quot;:&quot;vertical&quot;,&quot;curved&quot;:0,&quot;rounded&quot;:0};" vertex="1" parent="Dp2Q2RnaTo9Ew_AkdoZd-2">
          <mxGeometry x="55" y="60" width="10" height="200" as="geometry" />
        </mxCell>
        <mxCell id="Dp2Q2RnaTo9Ew_AkdoZd-4" value="open app" style="html=1;verticalAlign=bottom;startArrow=oval;endArrow=block;startSize=8;edgeStyle=elbowEdgeStyle;elbow=vertical;curved=0;rounded=0;" edge="1" parent="Dp2Q2RnaTo9Ew_AkdoZd-2" target="Dp2Q2RnaTo9Ew_AkdoZd-3">
          <mxGeometry relative="1" as="geometry">
            <mxPoint x="-80" y="70" as="sourcePoint" />
          </mxGeometry>
        </mxCell>
        <mxCell id="Dp2Q2RnaTo9Ew_AkdoZd-5" value="StartMenu (script)" style="shape=umlLifeline;perimeter=lifelinePerimeter;whiteSpace=wrap;html=1;container=0;dropTarget=0;collapsible=0;recursiveResize=0;outlineConnect=0;portConstraint=eastwest;newEdgeStyle={&quot;edgeStyle&quot;:&quot;elbowEdgeStyle&quot;,&quot;elbow&quot;:&quot;vertical&quot;,&quot;curved&quot;:0,&quot;rounded&quot;:0};" vertex="1" parent="Dp2Q2RnaTo9Ew_AkdoZd-1">
          <mxGeometry x="280" y="120" width="120" height="360" as="geometry" />
        </mxCell>
        <mxCell id="Dp2Q2RnaTo9Ew_AkdoZd-6" value="" style="html=1;points=[];perimeter=orthogonalPerimeter;outlineConnect=0;targetShapes=umlLifeline;portConstraint=eastwest;newEdgeStyle={&quot;edgeStyle&quot;:&quot;elbowEdgeStyle&quot;,&quot;elbow&quot;:&quot;vertical&quot;,&quot;curved&quot;:0,&quot;rounded&quot;:0};" vertex="1" parent="Dp2Q2RnaTo9Ew_AkdoZd-5">
          <mxGeometry x="55" y="90" width="10" height="40" as="geometry" />
        </mxCell>
        <mxCell id="Dp2Q2RnaTo9Ew_AkdoZd-7" value="" style="html=1;points=[];perimeter=orthogonalPerimeter;outlineConnect=0;targetShapes=umlLifeline;portConstraint=eastwest;newEdgeStyle={&quot;edgeStyle&quot;:&quot;elbowEdgeStyle&quot;,&quot;elbow&quot;:&quot;vertical&quot;,&quot;curved&quot;:0,&quot;rounded&quot;:0};" vertex="1" parent="Dp2Q2RnaTo9Ew_AkdoZd-5">
          <mxGeometry x="55" y="210" width="10" height="30" as="geometry" />
        </mxCell>
        <mxCell id="Dp2Q2RnaTo9Ew_AkdoZd-10" value="open sign up event" style="html=1;verticalAlign=bottom;endArrow=block;edgeStyle=elbowEdgeStyle;elbow=vertical;curved=0;rounded=0;" edge="1" parent="Dp2Q2RnaTo9Ew_AkdoZd-1" source="Dp2Q2RnaTo9Ew_AkdoZd-3" target="Dp2Q2RnaTo9Ew_AkdoZd-6">
          <mxGeometry relative="1" as="geometry">
            <mxPoint x="200" y="220" as="sourcePoint" />
            <Array as="points">
              <mxPoint x="295" y="220" />
            </Array>
            <mxPoint x="330" y="220" as="targetPoint" />
            <mxPoint as="offset" />
          </mxGeometry>
        </mxCell>
        <mxCell id="Dp2Q2RnaTo9Ew_AkdoZd-11" value="show sign up UI" style="html=1;verticalAlign=bottom;endArrow=block;edgeStyle=elbowEdgeStyle;elbow=vertical;curved=0;rounded=0;dashed=1;" edge="1" parent="Dp2Q2RnaTo9Ew_AkdoZd-1" source="Dp2Q2RnaTo9Ew_AkdoZd-6" target="Dp2Q2RnaTo9Ew_AkdoZd-3">
          <mxGeometry relative="1" as="geometry">
            <mxPoint x="330" y="250" as="sourcePoint" />
            <Array as="points">
              <mxPoint x="260" y="240" />
            </Array>
            <mxPoint x="190" y="250" as="targetPoint" />
          </mxGeometry>
        </mxCell>
        <mxCell id="Dp2Q2RnaTo9Ew_AkdoZd-12" value="User" style="shape=umlActor;verticalLabelPosition=bottom;verticalAlign=top;html=1;outlineConnect=0;" vertex="1" parent="Dp2Q2RnaTo9Ew_AkdoZd-1">
          <mxGeometry x="30" y="120" width="20" height="40" as="geometry" />
        </mxCell>
        <mxCell id="Dp2Q2RnaTo9Ew_AkdoZd-13" value="click sign up button" style="html=1;verticalAlign=bottom;startArrow=oval;endArrow=block;startSize=8;edgeStyle=elbowEdgeStyle;elbow=vertical;curved=0;rounded=0;" edge="1" parent="Dp2Q2RnaTo9Ew_AkdoZd-1" target="Dp2Q2RnaTo9Ew_AkdoZd-3">
          <mxGeometry relative="1" as="geometry">
            <mxPoint x="40" y="210" as="sourcePoint" />
            <mxPoint x="160" y="210" as="targetPoint" />
          </mxGeometry>
        </mxCell>
        <mxCell id="Dp2Q2RnaTo9Ew_AkdoZd-14" value="fill username" style="html=1;verticalAlign=bottom;startArrow=oval;endArrow=block;startSize=8;edgeStyle=elbowEdgeStyle;elbow=vertical;curved=0;rounded=0;" edge="1" parent="Dp2Q2RnaTo9Ew_AkdoZd-1" target="Dp2Q2RnaTo9Ew_AkdoZd-3">
          <mxGeometry relative="1" as="geometry">
            <mxPoint x="40" y="250" as="sourcePoint" />
            <mxPoint x="175" y="250" as="targetPoint" />
          </mxGeometry>
        </mxCell>
        <mxCell id="Dp2Q2RnaTo9Ew_AkdoZd-15" value="fill password" style="html=1;verticalAlign=bottom;startArrow=oval;endArrow=block;startSize=8;edgeStyle=elbowEdgeStyle;elbow=vertical;curved=0;rounded=0;" edge="1" parent="Dp2Q2RnaTo9Ew_AkdoZd-1" target="Dp2Q2RnaTo9Ew_AkdoZd-3">
          <mxGeometry relative="1" as="geometry">
            <mxPoint x="40" y="269.8" as="sourcePoint" />
            <mxPoint x="175" y="269.8" as="targetPoint" />
          </mxGeometry>
        </mxCell>
        <mxCell id="Dp2Q2RnaTo9Ew_AkdoZd-16" value="fill password again" style="html=1;verticalAlign=bottom;startArrow=oval;endArrow=block;startSize=8;edgeStyle=elbowEdgeStyle;elbow=vertical;curved=0;rounded=0;" edge="1" parent="Dp2Q2RnaTo9Ew_AkdoZd-1" target="Dp2Q2RnaTo9Ew_AkdoZd-3">
          <mxGeometry relative="1" as="geometry">
            <mxPoint x="40" y="290" as="sourcePoint" />
            <mxPoint x="175" y="290.2" as="targetPoint" />
          </mxGeometry>
        </mxCell>
        <mxCell id="Dp2Q2RnaTo9Ew_AkdoZd-17" value="select user role" style="html=1;verticalAlign=bottom;startArrow=oval;endArrow=block;startSize=8;edgeStyle=elbowEdgeStyle;elbow=vertical;curved=0;rounded=0;" edge="1" parent="Dp2Q2RnaTo9Ew_AkdoZd-1" target="Dp2Q2RnaTo9Ew_AkdoZd-3">
          <mxGeometry relative="1" as="geometry">
            <mxPoint x="40" y="310" as="sourcePoint" />
            <mxPoint x="165" y="310" as="targetPoint" />
            <Array as="points" />
          </mxGeometry>
        </mxCell>
        <mxCell id="Dp2Q2RnaTo9Ew_AkdoZd-18" value="click sign up button" style="html=1;verticalAlign=bottom;startArrow=oval;endArrow=block;startSize=8;edgeStyle=elbowEdgeStyle;elbow=vertical;curved=0;rounded=0;" edge="1" parent="Dp2Q2RnaTo9Ew_AkdoZd-1" target="Dp2Q2RnaTo9Ew_AkdoZd-3">
          <mxGeometry relative="1" as="geometry">
            <mxPoint x="40" y="330" as="sourcePoint" />
            <mxPoint x="165" y="330" as="targetPoint" />
            <Array as="points" />
          </mxGeometry>
        </mxCell>
        <mxCell id="Dp2Q2RnaTo9Ew_AkdoZd-19" value="sign up event" style="html=1;verticalAlign=bottom;endArrow=block;edgeStyle=elbowEdgeStyle;elbow=vertical;curved=0;rounded=0;" edge="1" parent="Dp2Q2RnaTo9Ew_AkdoZd-1" source="Dp2Q2RnaTo9Ew_AkdoZd-3" target="Dp2Q2RnaTo9Ew_AkdoZd-7">
          <mxGeometry relative="1" as="geometry">
            <mxPoint x="210" y="350" as="sourcePoint" />
            <Array as="points">
              <mxPoint x="240" y="340" />
            </Array>
            <mxPoint x="310" y="340" as="targetPoint" />
            <mxPoint as="offset" />
          </mxGeometry>
        </mxCell>
        <mxCell id="Dp2Q2RnaTo9Ew_AkdoZd-20" value="UserAction(data, signUpMode)" style="html=1;verticalAlign=bottom;endArrow=block;edgeStyle=elbowEdgeStyle;elbow=vertical;curved=0;rounded=0;" edge="1" parent="Dp2Q2RnaTo9Ew_AkdoZd-1">
          <mxGeometry x="0.0032" relative="1" as="geometry">
            <mxPoint x="545.0000000000002" y="390" as="sourcePoint" />
            <Array as="points">
              <mxPoint x="560" y="390" />
            </Array>
            <mxPoint x="735" y="390" as="targetPoint" />
            <mxPoint as="offset" />
          </mxGeometry>
        </mxCell>
        <mxCell id="Dp2Q2RnaTo9Ew_AkdoZd-21" value="Web (script)" style="shape=umlLifeline;perimeter=lifelinePerimeter;whiteSpace=wrap;html=1;container=0;dropTarget=0;collapsible=0;recursiveResize=0;outlineConnect=0;portConstraint=eastwest;newEdgeStyle={&quot;edgeStyle&quot;:&quot;elbowEdgeStyle&quot;,&quot;elbow&quot;:&quot;vertical&quot;,&quot;curved&quot;:0,&quot;rounded&quot;:0};" vertex="1" parent="Dp2Q2RnaTo9Ew_AkdoZd-1">
          <mxGeometry x="680" y="120" width="120" height="760" as="geometry" />
        </mxCell>
        <mxCell id="Dp2Q2RnaTo9Ew_AkdoZd-22" value="" style="html=1;points=[];perimeter=orthogonalPerimeter;outlineConnect=0;targetShapes=umlLifeline;portConstraint=eastwest;newEdgeStyle={&quot;edgeStyle&quot;:&quot;elbowEdgeStyle&quot;,&quot;elbow&quot;:&quot;vertical&quot;,&quot;curved&quot;:0,&quot;rounded&quot;:0};" vertex="1" parent="Dp2Q2RnaTo9Ew_AkdoZd-21">
          <mxGeometry x="55" y="260" width="10" height="390" as="geometry" />
        </mxCell>
        <mxCell id="Dp2Q2RnaTo9Ew_AkdoZd-23" value="UnityWebRequest" style="shape=umlLifeline;perimeter=lifelinePerimeter;whiteSpace=wrap;html=1;container=0;dropTarget=0;collapsible=0;recursiveResize=0;outlineConnect=0;portConstraint=eastwest;newEdgeStyle={&quot;edgeStyle&quot;:&quot;elbowEdgeStyle&quot;,&quot;elbow&quot;:&quot;vertical&quot;,&quot;curved&quot;:0,&quot;rounded&quot;:0};" vertex="1" parent="Dp2Q2RnaTo9Ew_AkdoZd-1">
          <mxGeometry x="880" y="120" width="120" height="680" as="geometry" />
        </mxCell>
        <mxCell id="Dp2Q2RnaTo9Ew_AkdoZd-24" value="" style="html=1;points=[];perimeter=orthogonalPerimeter;outlineConnect=0;targetShapes=umlLifeline;portConstraint=eastwest;newEdgeStyle={&quot;edgeStyle&quot;:&quot;elbowEdgeStyle&quot;,&quot;elbow&quot;:&quot;vertical&quot;,&quot;curved&quot;:0,&quot;rounded&quot;:0};" vertex="1" parent="Dp2Q2RnaTo9Ew_AkdoZd-23">
          <mxGeometry x="55" y="320" width="10" height="320" as="geometry" />
        </mxCell>
        <mxCell id="Dp2Q2RnaTo9Ew_AkdoZd-25" value="" style="endArrow=classic;html=1;rounded=0;edgeStyle=orthogonalEdgeStyle;" edge="1" parent="Dp2Q2RnaTo9Ew_AkdoZd-1">
          <mxGeometry width="50" height="50" relative="1" as="geometry">
            <mxPoint x="745" y="400" as="sourcePoint" />
            <mxPoint x="745" y="420" as="targetPoint" />
            <Array as="points">
              <mxPoint x="820" y="400" />
              <mxPoint x="820" y="420" />
            </Array>
          </mxGeometry>
        </mxCell>
        <mxCell id="Dp2Q2RnaTo9Ew_AkdoZd-26" value="put in a wwwform the data" style="edgeLabel;html=1;align=center;verticalAlign=middle;resizable=0;points=[];" vertex="1" connectable="0" parent="Dp2Q2RnaTo9Ew_AkdoZd-25">
          <mxGeometry x="-0.0708" relative="1" as="geometry">
            <mxPoint as="offset" />
          </mxGeometry>
        </mxCell>
        <mxCell id="Dp2Q2RnaTo9Ew_AkdoZd-27" value="POST(https://.../SignUp.php, form)" style="html=1;verticalAlign=bottom;endArrow=block;edgeStyle=elbowEdgeStyle;elbow=vertical;curved=0;rounded=0;" edge="1" parent="Dp2Q2RnaTo9Ew_AkdoZd-1" target="Dp2Q2RnaTo9Ew_AkdoZd-24" source="Dp2Q2RnaTo9Ew_AkdoZd-22">
          <mxGeometry x="0.0032" relative="1" as="geometry">
            <mxPoint x="704.9999999999998" y="449.5799999999999" as="sourcePoint" />
            <Array as="points">
              <mxPoint x="755" y="449.58" />
            </Array>
            <mxPoint x="890" y="449.58" as="targetPoint" />
            <mxPoint as="offset" />
          </mxGeometry>
        </mxCell>
        <mxCell id="Dp2Q2RnaTo9Ew_AkdoZd-28" value="Apache application" style="shape=umlLifeline;perimeter=lifelinePerimeter;whiteSpace=wrap;html=1;container=0;dropTarget=0;collapsible=0;recursiveResize=0;outlineConnect=0;portConstraint=eastwest;newEdgeStyle={&quot;edgeStyle&quot;:&quot;elbowEdgeStyle&quot;,&quot;elbow&quot;:&quot;vertical&quot;,&quot;curved&quot;:0,&quot;rounded&quot;:0};" vertex="1" parent="Dp2Q2RnaTo9Ew_AkdoZd-1">
          <mxGeometry x="1080" y="120" width="120" height="680" as="geometry" />
        </mxCell>
        <mxCell id="Dp2Q2RnaTo9Ew_AkdoZd-29" value="" style="html=1;points=[];perimeter=orthogonalPerimeter;outlineConnect=0;targetShapes=umlLifeline;portConstraint=eastwest;newEdgeStyle={&quot;edgeStyle&quot;:&quot;elbowEdgeStyle&quot;,&quot;elbow&quot;:&quot;vertical&quot;,&quot;curved&quot;:0,&quot;rounded&quot;:0};" vertex="1" parent="Dp2Q2RnaTo9Ew_AkdoZd-28">
          <mxGeometry x="55" y="320" width="10" height="310" as="geometry" />
        </mxCell>
        <mxCell id="Dp2Q2RnaTo9Ew_AkdoZd-30" value="Client App" style="rounded=1;whiteSpace=wrap;html=1;" vertex="1" parent="Dp2Q2RnaTo9Ew_AkdoZd-1">
          <mxGeometry x="120" y="40" width="920" height="40" as="geometry" />
        </mxCell>
        <mxCell id="Dp2Q2RnaTo9Ew_AkdoZd-31" value="" style="endArrow=none;dashed=1;html=1;rounded=0;entryX=1;entryY=1;entryDx=0;entryDy=0;fillColor=#f8cecc;strokeColor=#b85450;" edge="1" parent="Dp2Q2RnaTo9Ew_AkdoZd-1">
          <mxGeometry width="50" height="50" relative="1" as="geometry">
            <mxPoint x="1040" y="800" as="sourcePoint" />
            <mxPoint x="1040" y="80" as="targetPoint" />
          </mxGeometry>
        </mxCell>
        <mxCell id="Dp2Q2RnaTo9Ew_AkdoZd-32" value="&lt;font color=&quot;#ff1f1f&quot;&gt;INTERNET BOUNDARY&lt;/font&gt;" style="edgeLabel;html=1;align=center;verticalAlign=middle;resizable=0;points=[];rotation=270;" vertex="1" connectable="0" parent="Dp2Q2RnaTo9Ew_AkdoZd-31">
          <mxGeometry x="0.6985" y="-1" relative="1" as="geometry">
            <mxPoint x="-1" y="-1" as="offset" />
          </mxGeometry>
        </mxCell>
        <mxCell id="Dp2Q2RnaTo9Ew_AkdoZd-33" value="Apache Server" style="rounded=1;whiteSpace=wrap;html=1;" vertex="1" parent="Dp2Q2RnaTo9Ew_AkdoZd-1">
          <mxGeometry x="1040" y="40" width="520" height="40" as="geometry" />
        </mxCell>
        <mxCell id="Dp2Q2RnaTo9Ew_AkdoZd-34" value="MySql Server" style="rounded=1;whiteSpace=wrap;html=1;" vertex="1" parent="Dp2Q2RnaTo9Ew_AkdoZd-1">
          <mxGeometry x="1560" y="40" width="200" height="40" as="geometry" />
        </mxCell>
        <mxCell id="Dp2Q2RnaTo9Ew_AkdoZd-35" value="Database" style="rounded=1;whiteSpace=wrap;html=1;" vertex="1" parent="Dp2Q2RnaTo9Ew_AkdoZd-1">
          <mxGeometry x="1760" y="40" width="200" height="40" as="geometry" />
        </mxCell>
        <mxCell id="Dp2Q2RnaTo9Ew_AkdoZd-36" value="" style="endArrow=none;dashed=1;html=1;rounded=0;entryX=1;entryY=1;entryDx=0;entryDy=0;fillColor=#f8cecc;strokeColor=#b85450;" edge="1" parent="Dp2Q2RnaTo9Ew_AkdoZd-1">
          <mxGeometry width="50" height="50" relative="1" as="geometry">
            <mxPoint x="1560" y="800" as="sourcePoint" />
            <mxPoint x="1560" y="80" as="targetPoint" />
          </mxGeometry>
        </mxCell>
        <mxCell id="Dp2Q2RnaTo9Ew_AkdoZd-37" value="&lt;font color=&quot;#ff1f1f&quot;&gt;LOCALHOST BOUNDARY&lt;/font&gt;" style="edgeLabel;html=1;align=center;verticalAlign=middle;resizable=0;points=[];rotation=270;" vertex="1" connectable="0" parent="Dp2Q2RnaTo9Ew_AkdoZd-36">
          <mxGeometry x="0.6985" y="-1" relative="1" as="geometry">
            <mxPoint x="-1" y="-1" as="offset" />
          </mxGeometry>
        </mxCell>
        <mxCell id="Dp2Q2RnaTo9Ew_AkdoZd-38" value="" style="endArrow=none;dashed=1;html=1;rounded=0;entryX=1;entryY=1;entryDx=0;entryDy=0;fillColor=#f8cecc;strokeColor=#b85450;" edge="1" parent="Dp2Q2RnaTo9Ew_AkdoZd-1">
          <mxGeometry width="50" height="50" relative="1" as="geometry">
            <mxPoint x="1760" y="800" as="sourcePoint" />
            <mxPoint x="1760" y="90" as="targetPoint" />
          </mxGeometry>
        </mxCell>
        <mxCell id="Dp2Q2RnaTo9Ew_AkdoZd-39" value="&lt;font color=&quot;#ff1f1f&quot;&gt;LOCALHOST BOUNDARY&lt;/font&gt;" style="edgeLabel;html=1;align=center;verticalAlign=middle;resizable=0;points=[];rotation=270;" vertex="1" connectable="0" parent="Dp2Q2RnaTo9Ew_AkdoZd-38">
          <mxGeometry x="0.6985" y="-1" relative="1" as="geometry">
            <mxPoint x="-1" y="-1" as="offset" />
          </mxGeometry>
        </mxCell>
        <mxCell id="Dp2Q2RnaTo9Ew_AkdoZd-40" value="SignUp.php" style="shape=umlLifeline;perimeter=lifelinePerimeter;whiteSpace=wrap;html=1;container=0;dropTarget=0;collapsible=0;recursiveResize=0;outlineConnect=0;portConstraint=eastwest;newEdgeStyle={&quot;edgeStyle&quot;:&quot;elbowEdgeStyle&quot;,&quot;elbow&quot;:&quot;vertical&quot;,&quot;curved&quot;:0,&quot;rounded&quot;:0};" vertex="1" parent="Dp2Q2RnaTo9Ew_AkdoZd-1">
          <mxGeometry x="1240" y="120" width="120" height="680" as="geometry" />
        </mxCell>
        <mxCell id="Dp2Q2RnaTo9Ew_AkdoZd-41" value="" style="html=1;points=[];perimeter=orthogonalPerimeter;outlineConnect=0;targetShapes=umlLifeline;portConstraint=eastwest;newEdgeStyle={&quot;edgeStyle&quot;:&quot;elbowEdgeStyle&quot;,&quot;elbow&quot;:&quot;vertical&quot;,&quot;curved&quot;:0,&quot;rounded&quot;:0};" vertex="1" parent="Dp2Q2RnaTo9Ew_AkdoZd-40">
          <mxGeometry x="55" y="340" width="10" height="280" as="geometry" />
        </mxCell>
        <mxCell id="Dp2Q2RnaTo9Ew_AkdoZd-42" value="mysqli (interface)" style="shape=umlLifeline;perimeter=lifelinePerimeter;whiteSpace=wrap;html=1;container=0;dropTarget=0;collapsible=0;recursiveResize=0;outlineConnect=0;portConstraint=eastwest;newEdgeStyle={&quot;edgeStyle&quot;:&quot;elbowEdgeStyle&quot;,&quot;elbow&quot;:&quot;vertical&quot;,&quot;curved&quot;:0,&quot;rounded&quot;:0};" vertex="1" parent="Dp2Q2RnaTo9Ew_AkdoZd-1">
          <mxGeometry x="1400" y="120" width="120" height="680" as="geometry" />
        </mxCell>
        <mxCell id="Dp2Q2RnaTo9Ew_AkdoZd-43" value="" style="html=1;points=[];perimeter=orthogonalPerimeter;outlineConnect=0;targetShapes=umlLifeline;portConstraint=eastwest;newEdgeStyle={&quot;edgeStyle&quot;:&quot;elbowEdgeStyle&quot;,&quot;elbow&quot;:&quot;vertical&quot;,&quot;curved&quot;:0,&quot;rounded&quot;:0};" vertex="1" parent="Dp2Q2RnaTo9Ew_AkdoZd-42">
          <mxGeometry x="55" y="340" width="10" height="270" as="geometry" />
        </mxCell>
        <mxCell id="Dp2Q2RnaTo9Ew_AkdoZd-44" value="POST(https://.../SignUp.php, form)" style="html=1;verticalAlign=bottom;endArrow=block;edgeStyle=elbowEdgeStyle;elbow=vertical;curved=0;rounded=0;" edge="1" parent="Dp2Q2RnaTo9Ew_AkdoZd-1" source="Dp2Q2RnaTo9Ew_AkdoZd-24" target="Dp2Q2RnaTo9Ew_AkdoZd-29">
          <mxGeometry x="0.0032" relative="1" as="geometry">
            <mxPoint x="949.9999999999998" y="459.5799999999999" as="sourcePoint" />
            <Array as="points">
              <mxPoint x="1000" y="459.58" />
            </Array>
            <mxPoint x="1130" y="460" as="targetPoint" />
            <mxPoint as="offset" />
          </mxGeometry>
        </mxCell>
        <mxCell id="Dp2Q2RnaTo9Ew_AkdoZd-45" value="form" style="html=1;verticalAlign=bottom;endArrow=block;edgeStyle=elbowEdgeStyle;elbow=vertical;curved=0;rounded=0;" edge="1" parent="Dp2Q2RnaTo9Ew_AkdoZd-1" source="Dp2Q2RnaTo9Ew_AkdoZd-29" target="Dp2Q2RnaTo9Ew_AkdoZd-41">
          <mxGeometry x="0.0032" relative="1" as="geometry">
            <mxPoint x="1140" y="470" as="sourcePoint" />
            <Array as="points">
              <mxPoint x="1150" y="470" />
            </Array>
            <mxPoint x="1300" y="470" as="targetPoint" />
            <mxPoint as="offset" />
          </mxGeometry>
        </mxCell>
        <mxCell id="Dp2Q2RnaTo9Ew_AkdoZd-46" value="establish conexion" style="html=1;verticalAlign=bottom;endArrow=block;edgeStyle=elbowEdgeStyle;elbow=vertical;curved=0;rounded=0;" edge="1" parent="Dp2Q2RnaTo9Ew_AkdoZd-1" source="Dp2Q2RnaTo9Ew_AkdoZd-41" target="Dp2Q2RnaTo9Ew_AkdoZd-43">
          <mxGeometry x="0.0032" relative="1" as="geometry">
            <mxPoint x="1310" y="480" as="sourcePoint" />
            <Array as="points">
              <mxPoint x="1315" y="480" />
            </Array>
            <mxPoint x="1460" y="480" as="targetPoint" />
            <mxPoint as="offset" />
          </mxGeometry>
        </mxCell>
        <mxCell id="Dp2Q2RnaTo9Ew_AkdoZd-47" value="mysql" style="shape=umlLifeline;perimeter=lifelinePerimeter;whiteSpace=wrap;html=1;container=0;dropTarget=0;collapsible=0;recursiveResize=0;outlineConnect=0;portConstraint=eastwest;newEdgeStyle={&quot;edgeStyle&quot;:&quot;elbowEdgeStyle&quot;,&quot;elbow&quot;:&quot;vertical&quot;,&quot;curved&quot;:0,&quot;rounded&quot;:0};" vertex="1" parent="Dp2Q2RnaTo9Ew_AkdoZd-1">
          <mxGeometry x="1600" y="120" width="120" height="680" as="geometry" />
        </mxCell>
        <mxCell id="Dp2Q2RnaTo9Ew_AkdoZd-48" value="" style="html=1;points=[];perimeter=orthogonalPerimeter;outlineConnect=0;targetShapes=umlLifeline;portConstraint=eastwest;newEdgeStyle={&quot;edgeStyle&quot;:&quot;elbowEdgeStyle&quot;,&quot;elbow&quot;:&quot;vertical&quot;,&quot;curved&quot;:0,&quot;rounded&quot;:0};" vertex="1" parent="Dp2Q2RnaTo9Ew_AkdoZd-47">
          <mxGeometry x="55" y="350" width="10" height="50" as="geometry" />
        </mxCell>
        <mxCell id="Dp2Q2RnaTo9Ew_AkdoZd-49" value="" style="html=1;points=[];perimeter=orthogonalPerimeter;outlineConnect=0;targetShapes=umlLifeline;portConstraint=eastwest;newEdgeStyle={&quot;edgeStyle&quot;:&quot;elbowEdgeStyle&quot;,&quot;elbow&quot;:&quot;vertical&quot;,&quot;curved&quot;:0,&quot;rounded&quot;:0};" vertex="1" parent="Dp2Q2RnaTo9Ew_AkdoZd-47">
          <mxGeometry x="55" y="440" width="10" height="60" as="geometry" />
        </mxCell>
        <mxCell id="Dp2Q2RnaTo9Ew_AkdoZd-50" value="" style="html=1;points=[];perimeter=orthogonalPerimeter;outlineConnect=0;targetShapes=umlLifeline;portConstraint=eastwest;newEdgeStyle={&quot;edgeStyle&quot;:&quot;elbowEdgeStyle&quot;,&quot;elbow&quot;:&quot;vertical&quot;,&quot;curved&quot;:0,&quot;rounded&quot;:0};" vertex="1" parent="Dp2Q2RnaTo9Ew_AkdoZd-47">
          <mxGeometry x="55" y="540" width="10" height="60" as="geometry" />
        </mxCell>
        <mxCell id="Dp2Q2RnaTo9Ew_AkdoZd-51" value="db" style="shape=umlLifeline;perimeter=lifelinePerimeter;whiteSpace=wrap;html=1;container=0;dropTarget=0;collapsible=0;recursiveResize=0;outlineConnect=0;portConstraint=eastwest;newEdgeStyle={&quot;edgeStyle&quot;:&quot;elbowEdgeStyle&quot;,&quot;elbow&quot;:&quot;vertical&quot;,&quot;curved&quot;:0,&quot;rounded&quot;:0};" vertex="1" parent="Dp2Q2RnaTo9Ew_AkdoZd-1">
          <mxGeometry x="1800" y="120" width="120" height="680" as="geometry" />
        </mxCell>
        <mxCell id="Dp2Q2RnaTo9Ew_AkdoZd-52" value="" style="html=1;points=[];perimeter=orthogonalPerimeter;outlineConnect=0;targetShapes=umlLifeline;portConstraint=eastwest;newEdgeStyle={&quot;edgeStyle&quot;:&quot;elbowEdgeStyle&quot;,&quot;elbow&quot;:&quot;vertical&quot;,&quot;curved&quot;:0,&quot;rounded&quot;:0};" vertex="1" parent="Dp2Q2RnaTo9Ew_AkdoZd-51">
          <mxGeometry x="55" y="450" width="10" height="40" as="geometry" />
        </mxCell>
        <mxCell id="Dp2Q2RnaTo9Ew_AkdoZd-53" value="" style="html=1;points=[];perimeter=orthogonalPerimeter;outlineConnect=0;targetShapes=umlLifeline;portConstraint=eastwest;newEdgeStyle={&quot;edgeStyle&quot;:&quot;elbowEdgeStyle&quot;,&quot;elbow&quot;:&quot;vertical&quot;,&quot;curved&quot;:0,&quot;rounded&quot;:0};" vertex="1" parent="Dp2Q2RnaTo9Ew_AkdoZd-51">
          <mxGeometry x="55" y="550" width="10" height="40" as="geometry" />
        </mxCell>
        <mxCell id="Dp2Q2RnaTo9Ew_AkdoZd-54" value="establish conexion" style="html=1;verticalAlign=bottom;endArrow=block;edgeStyle=elbowEdgeStyle;elbow=vertical;curved=0;rounded=0;" edge="1" parent="Dp2Q2RnaTo9Ew_AkdoZd-1" source="Dp2Q2RnaTo9Ew_AkdoZd-43" target="Dp2Q2RnaTo9Ew_AkdoZd-48">
          <mxGeometry x="0.0032" relative="1" as="geometry">
            <mxPoint x="1465" y="490" as="sourcePoint" />
            <Array as="points">
              <mxPoint x="1485" y="490" />
            </Array>
            <mxPoint x="1630" y="490" as="targetPoint" />
            <mxPoint as="offset" />
          </mxGeometry>
        </mxCell>
        <mxCell id="Dp2Q2RnaTo9Ew_AkdoZd-55" value="200 ok" style="html=1;verticalAlign=bottom;endArrow=block;edgeStyle=elbowEdgeStyle;elbow=vertical;curved=0;rounded=0;dashed=1;" edge="1" parent="Dp2Q2RnaTo9Ew_AkdoZd-1" source="Dp2Q2RnaTo9Ew_AkdoZd-48">
          <mxGeometry x="0.0032" relative="1" as="geometry">
            <mxPoint x="1540" y="670" as="sourcePoint" />
            <Array as="points">
              <mxPoint x="1495" y="510" />
            </Array>
            <mxPoint x="1465" y="510" as="targetPoint" />
            <mxPoint as="offset" />
          </mxGeometry>
        </mxCell>
        <mxCell id="Dp2Q2RnaTo9Ew_AkdoZd-56" value="ok" style="html=1;verticalAlign=bottom;endArrow=block;edgeStyle=elbowEdgeStyle;elbow=vertical;curved=0;rounded=0;dashed=1;" edge="1" parent="Dp2Q2RnaTo9Ew_AkdoZd-1" source="Dp2Q2RnaTo9Ew_AkdoZd-43" target="Dp2Q2RnaTo9Ew_AkdoZd-41">
          <mxGeometry x="0.0032" relative="1" as="geometry">
            <mxPoint x="1315" y="590" as="sourcePoint" />
            <Array as="points">
              <mxPoint x="1380" y="520" />
            </Array>
            <mxPoint x="1470" y="590" as="targetPoint" />
            <mxPoint as="offset" />
          </mxGeometry>
        </mxCell>
        <mxCell id="Dp2Q2RnaTo9Ew_AkdoZd-57" value="select users&lt;br&gt;(with same username)" style="html=1;verticalAlign=bottom;endArrow=block;edgeStyle=elbowEdgeStyle;elbow=vertical;curved=0;rounded=0;" edge="1" parent="Dp2Q2RnaTo9Ew_AkdoZd-1">
          <mxGeometry x="0.0032" relative="1" as="geometry">
            <mxPoint x="1305" y="560" as="sourcePoint" />
            <Array as="points">
              <mxPoint x="1320" y="560" />
            </Array>
            <mxPoint x="1455" y="560" as="targetPoint" />
            <mxPoint as="offset" />
          </mxGeometry>
        </mxCell>
        <mxCell id="Dp2Q2RnaTo9Ew_AkdoZd-58" value="select users&lt;br&gt;(with same username)" style="html=1;verticalAlign=bottom;endArrow=block;edgeStyle=elbowEdgeStyle;elbow=vertical;curved=0;rounded=0;" edge="1" parent="Dp2Q2RnaTo9Ew_AkdoZd-1" source="Dp2Q2RnaTo9Ew_AkdoZd-43" target="Dp2Q2RnaTo9Ew_AkdoZd-49">
          <mxGeometry x="0.0032" relative="1" as="geometry">
            <mxPoint x="1470" y="570" as="sourcePoint" />
            <Array as="points">
              <mxPoint x="1485" y="570" />
            </Array>
            <mxPoint x="1620" y="570" as="targetPoint" />
            <mxPoint as="offset" />
          </mxGeometry>
        </mxCell>
        <mxCell id="Dp2Q2RnaTo9Ew_AkdoZd-59" value="0 results" style="html=1;verticalAlign=bottom;endArrow=block;edgeStyle=elbowEdgeStyle;elbow=vertical;curved=0;rounded=0;dashed=1;" edge="1" parent="Dp2Q2RnaTo9Ew_AkdoZd-1">
          <mxGeometry x="0.0032" relative="1" as="geometry">
            <mxPoint x="1455" y="620" as="sourcePoint" />
            <Array as="points">
              <mxPoint x="1375" y="620" />
            </Array>
            <mxPoint x="1305" y="620" as="targetPoint" />
            <mxPoint as="offset" />
          </mxGeometry>
        </mxCell>
        <mxCell id="Dp2Q2RnaTo9Ew_AkdoZd-60" value="0 results" style="html=1;verticalAlign=bottom;endArrow=block;edgeStyle=elbowEdgeStyle;elbow=vertical;curved=0;rounded=0;dashed=1;" edge="1" parent="Dp2Q2RnaTo9Ew_AkdoZd-1" target="Dp2Q2RnaTo9Ew_AkdoZd-43">
          <mxGeometry x="0.0032" relative="1" as="geometry">
            <mxPoint x="1655" y="610" as="sourcePoint" />
            <Array as="points">
              <mxPoint x="1490" y="610" />
            </Array>
            <mxPoint x="1460" y="610" as="targetPoint" />
            <mxPoint as="offset" />
          </mxGeometry>
        </mxCell>
        <mxCell id="Dp2Q2RnaTo9Ew_AkdoZd-61" value="insert user&lt;br style=&quot;border-color: var(--border-color);&quot;&gt;(username and password)" style="html=1;verticalAlign=bottom;endArrow=block;edgeStyle=elbowEdgeStyle;elbow=vertical;curved=0;rounded=0;" edge="1" parent="Dp2Q2RnaTo9Ew_AkdoZd-1" source="Dp2Q2RnaTo9Ew_AkdoZd-41">
          <mxGeometry x="0.0032" relative="1" as="geometry">
            <mxPoint x="1310" y="660" as="sourcePoint" />
            <Array as="points">
              <mxPoint x="1325" y="660" />
            </Array>
            <mxPoint x="1455" y="660" as="targetPoint" />
            <mxPoint as="offset" />
          </mxGeometry>
        </mxCell>
        <mxCell id="Dp2Q2RnaTo9Ew_AkdoZd-62" value="insert user&lt;br style=&quot;border-color: var(--border-color);&quot;&gt;(username and password)" style="html=1;verticalAlign=bottom;endArrow=block;edgeStyle=elbowEdgeStyle;elbow=vertical;curved=0;rounded=0;" edge="1" parent="Dp2Q2RnaTo9Ew_AkdoZd-1" source="Dp2Q2RnaTo9Ew_AkdoZd-43" target="Dp2Q2RnaTo9Ew_AkdoZd-50">
          <mxGeometry x="0.0032" relative="1" as="geometry">
            <mxPoint x="1470" y="670" as="sourcePoint" />
            <Array as="points">
              <mxPoint x="1490" y="670" />
            </Array>
            <mxPoint x="1660" y="670" as="targetPoint" />
            <mxPoint as="offset" />
          </mxGeometry>
        </mxCell>
        <mxCell id="Dp2Q2RnaTo9Ew_AkdoZd-63" value="1 inserted" style="html=1;verticalAlign=bottom;endArrow=block;edgeStyle=elbowEdgeStyle;elbow=vertical;curved=0;rounded=0;dashed=1;" edge="1" parent="Dp2Q2RnaTo9Ew_AkdoZd-1" target="Dp2Q2RnaTo9Ew_AkdoZd-43">
          <mxGeometry x="0.0032" relative="1" as="geometry">
            <mxPoint x="1655" y="710" as="sourcePoint" />
            <Array as="points">
              <mxPoint x="1490" y="710" />
            </Array>
            <mxPoint x="1460" y="710" as="targetPoint" />
            <mxPoint as="offset" />
          </mxGeometry>
        </mxCell>
        <mxCell id="Dp2Q2RnaTo9Ew_AkdoZd-64" value="1 inserted" style="html=1;verticalAlign=bottom;endArrow=block;edgeStyle=elbowEdgeStyle;elbow=vertical;curved=0;rounded=0;dashed=1;" edge="1" parent="Dp2Q2RnaTo9Ew_AkdoZd-1" target="Dp2Q2RnaTo9Ew_AkdoZd-41">
          <mxGeometry x="0.0032" relative="1" as="geometry">
            <mxPoint x="1455" y="720" as="sourcePoint" />
            <Array as="points" />
            <mxPoint x="1300" y="720" as="targetPoint" />
            <mxPoint as="offset" />
          </mxGeometry>
        </mxCell>
        <mxCell id="Dp2Q2RnaTo9Ew_AkdoZd-65" value="ok" style="html=1;verticalAlign=bottom;endArrow=block;edgeStyle=elbowEdgeStyle;elbow=vertical;curved=0;rounded=0;" edge="1" parent="Dp2Q2RnaTo9Ew_AkdoZd-1" target="Dp2Q2RnaTo9Ew_AkdoZd-29">
          <mxGeometry x="0.0032" relative="1" as="geometry">
            <mxPoint x="1295" y="730" as="sourcePoint" />
            <Array as="points" />
            <mxPoint x="1140" y="730" as="targetPoint" />
            <mxPoint as="offset" />
          </mxGeometry>
        </mxCell>
        <mxCell id="Dp2Q2RnaTo9Ew_AkdoZd-66" value="200 ok" style="html=1;verticalAlign=bottom;endArrow=block;edgeStyle=elbowEdgeStyle;elbow=vertical;curved=0;rounded=0;dashed=1;" edge="1" parent="Dp2Q2RnaTo9Ew_AkdoZd-1">
          <mxGeometry x="0.0032" relative="1" as="geometry">
            <mxPoint x="1135" y="740.17" as="sourcePoint" />
            <Array as="points" />
            <mxPoint x="945" y="740" as="targetPoint" />
            <mxPoint as="offset" />
          </mxGeometry>
        </mxCell>
        <mxCell id="Dp2Q2RnaTo9Ew_AkdoZd-67" value="ok" style="html=1;verticalAlign=bottom;endArrow=block;edgeStyle=elbowEdgeStyle;elbow=vertical;curved=0;rounded=0;dashed=1;" edge="1" parent="Dp2Q2RnaTo9Ew_AkdoZd-1" source="Dp2Q2RnaTo9Ew_AkdoZd-24" target="Dp2Q2RnaTo9Ew_AkdoZd-22">
          <mxGeometry x="0.0032" relative="1" as="geometry">
            <mxPoint x="935" y="750.0000000000001" as="sourcePoint" />
            <Array as="points">
              <mxPoint x="750" y="750" />
            </Array>
            <mxPoint x="745" y="750.0000000000001" as="targetPoint" />
            <mxPoint as="offset" />
          </mxGeometry>
        </mxCell>
        <mxCell id="Dp2Q2RnaTo9Ew_AkdoZd-68" value="select users&lt;br&gt;(with same username)" style="html=1;verticalAlign=bottom;endArrow=block;edgeStyle=elbowEdgeStyle;elbow=vertical;curved=0;rounded=0;" edge="1" parent="Dp2Q2RnaTo9Ew_AkdoZd-1">
          <mxGeometry x="0.0032" relative="1" as="geometry">
            <mxPoint x="1665" y="580" as="sourcePoint" />
            <Array as="points">
              <mxPoint x="1680" y="580" />
            </Array>
            <mxPoint x="1855" y="580" as="targetPoint" />
            <mxPoint as="offset" />
          </mxGeometry>
        </mxCell>
        <mxCell id="Dp2Q2RnaTo9Ew_AkdoZd-69" value="0 results" style="html=1;verticalAlign=bottom;endArrow=block;edgeStyle=elbowEdgeStyle;elbow=vertical;curved=0;rounded=0;dashed=1;" edge="1" parent="Dp2Q2RnaTo9Ew_AkdoZd-1">
          <mxGeometry x="0.0032" relative="1" as="geometry">
            <mxPoint x="1855" y="600" as="sourcePoint" />
            <Array as="points">
              <mxPoint x="1690" y="600" />
            </Array>
            <mxPoint x="1665" y="600" as="targetPoint" />
            <mxPoint as="offset" />
          </mxGeometry>
        </mxCell>
        <mxCell id="Dp2Q2RnaTo9Ew_AkdoZd-70" value="insert user&lt;br style=&quot;border-color: var(--border-color);&quot;&gt;(username and password)" style="html=1;verticalAlign=bottom;endArrow=block;edgeStyle=elbowEdgeStyle;elbow=vertical;curved=0;rounded=0;" edge="1" parent="Dp2Q2RnaTo9Ew_AkdoZd-1" source="Dp2Q2RnaTo9Ew_AkdoZd-50" target="Dp2Q2RnaTo9Ew_AkdoZd-53">
          <mxGeometry x="0.0032" relative="1" as="geometry">
            <mxPoint x="1670" y="680" as="sourcePoint" />
            <Array as="points">
              <mxPoint x="1690" y="680" />
            </Array>
            <mxPoint x="1860" y="680" as="targetPoint" />
            <mxPoint as="offset" />
          </mxGeometry>
        </mxCell>
        <mxCell id="Dp2Q2RnaTo9Ew_AkdoZd-71" value="1 inserted" style="html=1;verticalAlign=bottom;endArrow=block;edgeStyle=elbowEdgeStyle;elbow=vertical;curved=0;rounded=0;dashed=1;" edge="1" parent="Dp2Q2RnaTo9Ew_AkdoZd-1" target="Dp2Q2RnaTo9Ew_AkdoZd-50">
          <mxGeometry x="0.0032" relative="1" as="geometry">
            <mxPoint x="1855" y="700" as="sourcePoint" />
            <Array as="points">
              <mxPoint x="1690" y="700" />
            </Array>
            <mxPoint x="1660" y="700" as="targetPoint" />
            <mxPoint as="offset" />
          </mxGeometry>
        </mxCell>
        <mxCell id="Dp2Q2RnaTo9Ew_AkdoZd-72" value="SceneManager" style="shape=umlLifeline;perimeter=lifelinePerimeter;whiteSpace=wrap;html=1;container=0;dropTarget=0;collapsible=0;recursiveResize=0;outlineConnect=0;portConstraint=eastwest;newEdgeStyle={&quot;edgeStyle&quot;:&quot;elbowEdgeStyle&quot;,&quot;elbow&quot;:&quot;vertical&quot;,&quot;curved&quot;:0,&quot;rounded&quot;:0};" vertex="1" parent="Dp2Q2RnaTo9Ew_AkdoZd-1">
          <mxGeometry x="320" y="640" width="120" height="240" as="geometry" />
        </mxCell>
        <mxCell id="Dp2Q2RnaTo9Ew_AkdoZd-73" value="" style="html=1;points=[];perimeter=orthogonalPerimeter;outlineConnect=0;targetShapes=umlLifeline;portConstraint=eastwest;newEdgeStyle={&quot;edgeStyle&quot;:&quot;elbowEdgeStyle&quot;,&quot;elbow&quot;:&quot;vertical&quot;,&quot;curved&quot;:0,&quot;rounded&quot;:0};" vertex="1" parent="Dp2Q2RnaTo9Ew_AkdoZd-72">
          <mxGeometry x="55" y="120" width="10" height="20" as="geometry" />
        </mxCell>
        <mxCell id="Dp2Q2RnaTo9Ew_AkdoZd-74" value="loadScene(facultad)" style="html=1;verticalAlign=bottom;endArrow=block;edgeStyle=elbowEdgeStyle;elbow=vertical;curved=0;rounded=0;" edge="1" parent="Dp2Q2RnaTo9Ew_AkdoZd-1" source="SdhppizzeJgXYHimtJfN-2" target="Dp2Q2RnaTo9Ew_AkdoZd-73">
          <mxGeometry x="0.0032" relative="1" as="geometry">
            <mxPoint x="480" y="770" as="sourcePoint" />
            <Array as="points">
              <mxPoint x="520" y="770" />
            </Array>
            <mxPoint x="390" y="770" as="targetPoint" />
            <mxPoint as="offset" />
          </mxGeometry>
        </mxCell>
        <mxCell id="Dp2Q2RnaTo9Ew_AkdoZd-75" value="NetworkManager" style="shape=umlLifeline;perimeter=lifelinePerimeter;whiteSpace=wrap;html=1;container=0;dropTarget=0;collapsible=0;recursiveResize=0;outlineConnect=0;portConstraint=eastwest;newEdgeStyle={&quot;edgeStyle&quot;:&quot;elbowEdgeStyle&quot;,&quot;elbow&quot;:&quot;vertical&quot;,&quot;curved&quot;:0,&quot;rounded&quot;:0};" vertex="1" parent="Dp2Q2RnaTo9Ew_AkdoZd-1">
          <mxGeometry x="190" y="640" width="120" height="240" as="geometry" />
        </mxCell>
        <mxCell id="Dp2Q2RnaTo9Ew_AkdoZd-76" value="" style="html=1;points=[];perimeter=orthogonalPerimeter;outlineConnect=0;targetShapes=umlLifeline;portConstraint=eastwest;newEdgeStyle={&quot;edgeStyle&quot;:&quot;elbowEdgeStyle&quot;,&quot;elbow&quot;:&quot;vertical&quot;,&quot;curved&quot;:0,&quot;rounded&quot;:0};" vertex="1" parent="Dp2Q2RnaTo9Ew_AkdoZd-75">
          <mxGeometry x="55" y="150" width="10" height="20" as="geometry" />
        </mxCell>
        <mxCell id="Dp2Q2RnaTo9Ew_AkdoZd-77" value="startClient()" style="html=1;verticalAlign=bottom;endArrow=block;edgeStyle=elbowEdgeStyle;elbow=vertical;curved=0;rounded=0;" edge="1" parent="Dp2Q2RnaTo9Ew_AkdoZd-1" source="SdhppizzeJgXYHimtJfN-2" target="Dp2Q2RnaTo9Ew_AkdoZd-76">
          <mxGeometry x="0.0032" relative="1" as="geometry">
            <mxPoint x="480" y="800" as="sourcePoint" />
            <Array as="points" />
            <mxPoint x="340" y="800.17" as="targetPoint" />
            <mxPoint as="offset" />
          </mxGeometry>
        </mxCell>
        <mxCell id="Dp2Q2RnaTo9Ew_AkdoZd-78" value="VivoxPlayer" style="shape=umlLifeline;perimeter=lifelinePerimeter;whiteSpace=wrap;html=1;container=0;dropTarget=0;collapsible=0;recursiveResize=0;outlineConnect=0;portConstraint=eastwest;newEdgeStyle={&quot;edgeStyle&quot;:&quot;elbowEdgeStyle&quot;,&quot;elbow&quot;:&quot;vertical&quot;,&quot;curved&quot;:0,&quot;rounded&quot;:0};" vertex="1" parent="Dp2Q2RnaTo9Ew_AkdoZd-1">
          <mxGeometry x="60" y="640" width="120" height="240" as="geometry" />
        </mxCell>
        <mxCell id="Dp2Q2RnaTo9Ew_AkdoZd-79" value="" style="html=1;points=[];perimeter=orthogonalPerimeter;outlineConnect=0;targetShapes=umlLifeline;portConstraint=eastwest;newEdgeStyle={&quot;edgeStyle&quot;:&quot;elbowEdgeStyle&quot;,&quot;elbow&quot;:&quot;vertical&quot;,&quot;curved&quot;:0,&quot;rounded&quot;:0};" vertex="1" parent="Dp2Q2RnaTo9Ew_AkdoZd-78">
          <mxGeometry x="55" y="180" width="10" height="20" as="geometry" />
        </mxCell>
        <mxCell id="Dp2Q2RnaTo9Ew_AkdoZd-80" value="signIntoVivox()" style="html=1;verticalAlign=bottom;endArrow=block;edgeStyle=elbowEdgeStyle;elbow=vertical;curved=0;rounded=0;" edge="1" parent="Dp2Q2RnaTo9Ew_AkdoZd-1" source="SdhppizzeJgXYHimtJfN-2">
          <mxGeometry x="0.0033" relative="1" as="geometry">
            <mxPoint x="480" y="830" as="sourcePoint" />
            <Array as="points" />
            <mxPoint x="125" y="829.2380952380952" as="targetPoint" />
            <mxPoint as="offset" />
          </mxGeometry>
        </mxCell>
        <mxCell id="SdhppizzeJgXYHimtJfN-0" value="StartMenuDomain" style="shape=umlLifeline;perimeter=lifelinePerimeter;whiteSpace=wrap;html=1;container=0;dropTarget=0;collapsible=0;recursiveResize=0;outlineConnect=0;portConstraint=eastwest;newEdgeStyle={&quot;edgeStyle&quot;:&quot;elbowEdgeStyle&quot;,&quot;elbow&quot;:&quot;vertical&quot;,&quot;curved&quot;:0,&quot;rounded&quot;:0};" vertex="1" parent="Dp2Q2RnaTo9Ew_AkdoZd-1">
          <mxGeometry x="480" y="120" width="120" height="760" as="geometry" />
        </mxCell>
        <mxCell id="SdhppizzeJgXYHimtJfN-2" value="" style="html=1;points=[];perimeter=orthogonalPerimeter;outlineConnect=0;targetShapes=umlLifeline;portConstraint=eastwest;newEdgeStyle={&quot;edgeStyle&quot;:&quot;elbowEdgeStyle&quot;,&quot;elbow&quot;:&quot;vertical&quot;,&quot;curved&quot;:0,&quot;rounded&quot;:0};" vertex="1" parent="SdhppizzeJgXYHimtJfN-0">
          <mxGeometry x="55" y="220" width="10" height="520" as="geometry" />
        </mxCell>
        <mxCell id="SdhppizzeJgXYHimtJfN-3" value="" style="endArrow=classic;html=1;rounded=0;edgeStyle=orthogonalEdgeStyle;" edge="1" parent="SdhppizzeJgXYHimtJfN-0">
          <mxGeometry width="50" height="50" relative="1" as="geometry">
            <mxPoint x="65" y="230" as="sourcePoint" />
            <mxPoint x="65" y="250" as="targetPoint" />
            <Array as="points">
              <mxPoint x="100" y="230" />
              <mxPoint x="100" y="250" />
            </Array>
          </mxGeometry>
        </mxCell>
        <mxCell id="SdhppizzeJgXYHimtJfN-4" value="validate input" style="edgeLabel;html=1;align=center;verticalAlign=middle;resizable=0;points=[];" vertex="1" connectable="0" parent="SdhppizzeJgXYHimtJfN-3">
          <mxGeometry x="-0.0708" relative="1" as="geometry">
            <mxPoint x="10" as="offset" />
          </mxGeometry>
        </mxCell>
        <mxCell id="SdhppizzeJgXYHimtJfN-5" value="sign up(username, password, role)" style="html=1;verticalAlign=bottom;endArrow=block;edgeStyle=elbowEdgeStyle;elbow=vertical;curved=0;rounded=0;" edge="1" parent="Dp2Q2RnaTo9Ew_AkdoZd-1" source="Dp2Q2RnaTo9Ew_AkdoZd-7" target="SdhppizzeJgXYHimtJfN-2">
          <mxGeometry relative="1" as="geometry">
            <mxPoint x="350" y="350" as="sourcePoint" />
            <Array as="points">
              <mxPoint x="405" y="350" />
            </Array>
            <mxPoint x="500" y="350" as="targetPoint" />
            <mxPoint as="offset" />
          </mxGeometry>
        </mxCell>
        <mxCell id="HTM4WPUCfCt6-F8LFa5I-0" value="ok" style="html=1;verticalAlign=bottom;endArrow=block;edgeStyle=elbowEdgeStyle;elbow=vertical;curved=0;rounded=0;dashed=1;" edge="1" parent="Dp2Q2RnaTo9Ew_AkdoZd-1">
          <mxGeometry x="0.0032" relative="1" as="geometry">
            <mxPoint x="735" y="759.58" as="sourcePoint" />
            <Array as="points">
              <mxPoint x="550" y="759.58" />
            </Array>
            <mxPoint x="545" y="759.58" as="targetPoint" />
            <mxPoint as="offset" />
          </mxGeometry>
        </mxCell>
      </root>
    </mxGraphModel>
  </diagram>
</mxfile>
